<svg version="1.1" xmlns="http://www.w3.org/2000/svg" viewBox="0 0 2120.3571411210455 1060" width="2120.3571411210455" height="1060">
  <!-- svg-source:excalidraw -->
  
  <defs>
    <style class="style-fonts">
      @font-face {
        font-family: "Virgil";
        src: url("https://excalidraw.com/Virgil.woff2");
      }
      @font-face {
        font-family: "Cascadia";
        src: url("https://excalidraw.com/Cascadia.woff2");
      }
      @font-face {
        font-family: "Assistant";
        src: url("https://excalidraw.com/Assistant-Regular.woff2");
      }
    </style>
    
  </defs>
  <rect x="0" y="0" width="2120.3571411210455" height="1060" fill="#ffffff"></rect><g stroke-linecap="round" transform="translate(110.02597764941447 350) rotate(0 250 30)"><path d="M0 0 C0 0, 0 0, 0 0 M0 0 C0 0, 0 0, 0 0 M-0.26 6.4 C0.67 5.27, 2.23 2.32, 4.99 0.36 M-0.26 6.4 C0.63 4.82, 2.17 3.85, 4.99 0.36 M0.13 12.04 C3.31 7.72, 7.62 3.83, 10.63 -0.03 M0.13 12.04 C3.43 7.83, 6.97 5.82, 10.63 -0.03 M-0.13 18.44 C2.34 13.38, 8.87 10.86, 15.62 0.33 M-0.13 18.44 C3.83 12.33, 9.19 8.88, 15.62 0.33 M0.27 24.08 C5.83 17.5, 8.02 12.37, 21.26 -0.07 M0.27 24.08 C7.75 16.65, 14.76 8.56, 21.26 -0.07 M0 30.48 C9.81 19.13, 18.81 7.82, 26.25 0.29 M0 30.48 C8.55 20.63, 15.88 10.43, 26.25 0.29 M-0.26 36.88 C10.57 24.62, 18.34 14.59, 31.89 -0.1 M-0.26 36.88 C8.37 28.22, 15.79 19.3, 31.89 -0.1 M0.14 42.52 C6.42 33.99, 13.11 26.19, 36.88 0.26 M0.14 42.52 C10.49 32.66, 18.61 20.86, 36.88 0.26 M-0.12 48.92 C16.55 29.79, 29.11 15.15, 42.52 -0.14 M-0.12 48.92 C10.54 37.33, 21.86 24.64, 42.52 -0.14 M0.27 54.56 C12.36 40.7, 28.32 24.71, 47.51 0.22 M0.27 54.56 C11.54 43.2, 22.1 30.07, 47.51 0.22 M0.67 60.2 C10.75 48.33, 21.6 35.63, 53.15 -0.17 M0.67 60.2 C16.53 42.54, 32.9 21.78, 53.15 -0.17 M5.65 60.56 C22.09 37.3, 43.43 17.39, 58.14 0.19 M5.65 60.56 C25.65 36.33, 45.9 14.05, 58.14 0.19 M11.3 60.17 C22.46 46.25, 34.2 34.1, 63.78 -0.21 M11.3 60.17 C32.02 36.68, 52.36 12.92, 63.78 -0.21 M16.28 60.53 C27.44 47.57, 38.74 36.07, 68.77 0.15 M16.28 60.53 C27.3 49.37, 37.81 35.21, 68.77 0.15 M21.93 60.14 C42.63 38.2, 60.07 17.12, 74.41 -0.24 M21.93 60.14 C34.91 45, 47.29 30.32, 74.41 -0.24 M26.91 60.5 C38.01 47.44, 50.41 30.16, 79.4 0.12 M26.91 60.5 C47.7 38.07, 67.29 15.96, 79.4 0.12 M32.56 60.1 C47.07 44.22, 60.58 29.69, 85.04 -0.28 M32.56 60.1 C51.96 38.05, 72.08 15.26, 85.04 -0.28 M37.54 60.46 C53.65 45.45, 70.04 24.48, 90.03 0.08 M37.54 60.46 C57.43 39.11, 75.96 16.65, 90.03 0.08 M43.19 60.07 C63.58 38.64, 81.27 19.61, 95.67 -0.31 M43.19 60.07 C58.1 42.66, 73.86 22.79, 95.67 -0.31 M48.17 60.43 C64.54 39.7, 85.83 18.2, 100.66 0.05 M48.17 60.43 C59.66 45.95, 72.56 33.34, 100.66 0.05 M53.16 60.79 C64.91 45.43, 78.57 33.35, 106.3 -0.34 M53.16 60.79 C69.32 42.09, 86.01 22.98, 106.3 -0.34 M58.8 60.39 C77.17 42.07, 94.01 21.23, 111.29 0.02 M58.8 60.39 C78.41 38.04, 96.68 15.01, 111.29 0.02 M63.79 60.75 C77.44 45.32, 87.61 31.46, 116.27 0.38 M63.79 60.75 C78.43 44.28, 91.94 28.8, 116.27 0.38 M69.43 60.36 C81.59 44.94, 96.59 32.77, 121.92 -0.02 M69.43 60.36 C80.34 48.11, 91.07 35.49, 121.92 -0.02 M74.42 60.72 C95.11 36.08, 113.27 15.45, 126.91 0.34 M74.42 60.72 C85.49 48.18, 97.04 33.9, 126.91 0.34 M80.06 60.32 C92.61 46.42, 106.6 30.59, 132.55 -0.05 M80.06 60.32 C97.77 39.5, 116.17 17.85, 132.55 -0.05 M85.05 60.68 C97.54 47.27, 112.19 32.37, 137.54 0.31 M85.05 60.68 C105.6 37.78, 126.46 12.94, 137.54 0.31 M90.69 60.29 C109.71 37.17, 133.47 13.92, 143.18 -0.09 M90.69 60.29 C107.63 40.02, 125.52 19.16, 143.18 -0.09 M95.68 60.65 C109.65 45.49, 122.77 30.67, 148.17 0.27 M95.68 60.65 C107.97 47.13, 118.65 35.85, 148.17 0.27 M101.32 60.25 C114.88 41.8, 131.85 29, 153.81 -0.12 M101.32 60.25 C120.63 39.25, 136.98 19.16, 153.81 -0.12 M106.31 60.61 C118.81 45.28, 134.01 27.89, 158.8 0.24 M106.31 60.61 C119.87 44.95, 134.16 29.92, 158.8 0.24 M111.95 60.22 C130.04 38.18, 152.58 15.85, 164.44 -0.16 M111.95 60.22 C126.87 41.98, 142.29 24.02, 164.44 -0.16 M116.94 60.58 C133.17 42.85, 148.49 23.97, 169.43 0.2 M116.94 60.58 C132.46 41.34, 150.44 23.23, 169.43 0.2 M122.58 60.18 C141.39 41.22, 156.52 20.74, 175.07 -0.19 M122.58 60.18 C139.25 41.76, 155.53 23.71, 175.07 -0.19 M127.57 60.55 C140.33 41.98, 157.43 27.4, 180.06 0.17 M127.57 60.55 C144.12 42.19, 161.66 22.74, 180.06 0.17 M133.21 60.15 C147.32 43.19, 159.92 27.99, 185.7 -0.23 M133.21 60.15 C146.03 44.42, 160.65 27.7, 185.7 -0.23 M138.2 60.51 C151.12 44.1, 168.04 25.09, 190.69 0.13 M138.2 60.51 C149.49 47.61, 161.31 32.72, 190.69 0.13 M143.84 60.12 C156.48 44.12, 169.04 30.55, 196.33 -0.26 M143.84 60.12 C157.52 44.77, 171.16 27.48, 196.33 -0.26 M148.83 60.48 C169.05 37.31, 191.94 11.54, 201.32 0.1 M148.83 60.48 C167.34 39.51, 184.94 18.26, 201.32 0.1 M154.47 60.08 C164.98 44.74, 177.36 31.03, 206.96 -0.3 M154.47 60.08 C172.66 38.53, 190.2 16.62, 206.96 -0.3 M159.46 60.44 C168.5 49.57, 182.35 38.11, 211.95 0.06 M159.46 60.44 C177.97 38.07, 199.26 14.05, 211.95 0.06 M165.1 60.05 C184.12 39.35, 199.76 22.4, 217.59 -0.33 M165.1 60.05 C185.42 37.62, 204.49 16.04, 217.59 -0.33 M170.09 60.41 C179.42 49.02, 192.3 32.92, 222.58 0.03 M170.09 60.41 C181.34 47.45, 192.06 35.83, 222.58 0.03 M175.08 60.77 C191.32 39.57, 210.69 19.7, 228.22 -0.36 M175.08 60.77 C192.49 39.42, 211.19 18.97, 228.22 -0.36 M180.72 60.37 C194.55 43.91, 205.82 33.32, 233.21 0 M180.72 60.37 C195.15 44.64, 211.43 27.08, 233.21 0 M185.71 60.73 C207.99 36.17, 228.46 14.84, 238.19 0.36 M185.71 60.73 C199.19 44.04, 212.21 29.5, 238.19 0.36 M191.35 60.34 C203.37 46.99, 213.97 34, 243.84 -0.04 M191.35 60.34 C204.61 45.87, 217.97 29.95, 243.84 -0.04 M196.34 60.7 C213.43 38.56, 231.81 17.92, 248.82 0.32 M196.34 60.7 C212.52 41.4, 228 23.07, 248.82 0.32 M201.98 60.3 C215.78 44.56, 226.4 31.99, 254.47 -0.07 M201.98 60.3 C219.51 38.3, 239.39 18.41, 254.47 -0.07 M206.97 60.66 C225.6 39.96, 246 16.54, 259.45 0.29 M206.97 60.66 C222.61 43.76, 235.26 27.74, 259.45 0.29 M212.61 60.27 C225.49 45.74, 236.34 32.09, 265.1 -0.11 M212.61 60.27 C232.96 37.22, 252.72 13.87, 265.1 -0.11 M217.6 60.63 C236.05 37.97, 255.35 19.43, 270.08 0.25 M217.6 60.63 C231.43 44.06, 246.78 27.01, 270.08 0.25 M223.24 60.23 C237.42 41.21, 254.47 21.47, 275.73 -0.14 M223.24 60.23 C240.01 40.89, 256.47 21.75, 275.73 -0.14 M228.23 60.59 C241.92 43.92, 255.98 25.88, 280.71 0.22 M228.23 60.59 C241.22 46.42, 254.11 30.72, 280.71 0.22 M233.87 60.2 C249.08 41.42, 265.26 24.05, 286.36 -0.18 M233.87 60.2 C252.15 39.59, 269.08 20.55, 286.36 -0.18 M238.86 60.56 C253.11 43.72, 271 22.62, 291.34 0.18 M238.86 60.56 C256.54 41.78, 272.67 22.64, 291.34 0.18 M244.5 60.17 C263.2 38.28, 279.18 17.97, 296.99 -0.21 M244.5 60.17 C264.63 36.63, 283.26 15, 296.99 -0.21 M249.49 60.53 C262.06 44.96, 275.34 31, 301.97 0.15 M249.49 60.53 C268.19 39.27, 286.6 17.91, 301.97 0.15 M255.13 60.13 C269.52 41.58, 282.91 28.23, 307.62 -0.25 M255.13 60.13 C273.81 37.38, 293.89 13.05, 307.62 -0.25 M260.12 60.49 C276.14 41.95, 291.53 27.86, 312.6 0.11 M260.12 60.49 C271.62 47.15, 283.75 33.93, 312.6 0.11 M265.76 60.1 C279.85 42.57, 293.94 26.04, 318.25 -0.28 M265.76 60.1 C278.34 44.29, 293.1 28.82, 318.25 -0.28 M270.75 60.46 C286.44 43.51, 303.11 25.54, 323.23 0.08 M270.75 60.46 C291.71 37.27, 311.86 12.59, 323.23 0.08 M276.39 60.06 C286.96 47.22, 299.96 34.34, 328.88 -0.31 M276.39 60.06 C291.32 41.64, 307.53 23.26, 328.88 -0.31 M281.38 60.42 C294.05 45.27, 309.83 28, 333.86 0.05 M281.38 60.42 C295.91 43.19, 311.8 27.02, 333.86 0.05 M286.37 60.78 C302.45 40.74, 324.45 19.75, 339.51 -0.35 M286.37 60.78 C306.4 38.4, 326.59 15.03, 339.51 -0.35 M292.01 60.39 C311.24 38.47, 328.85 19.66, 344.49 0.01 M292.01 60.39 C309.26 40.81, 325.52 21.44, 344.49 0.01 M297 60.75 C314.68 41.66, 333.51 20.35, 349.48 0.37 M297 60.75 C314.44 39.49, 332.98 18.99, 349.48 0.37 M302.64 60.35 C320.83 41.94, 337.11 21.5, 355.12 -0.02 M302.64 60.35 C317.6 42.59, 335.3 23.96, 355.12 -0.02 M307.63 60.71 C325.08 43.97, 340.33 24.87, 360.11 0.34 M307.63 60.71 C320.24 46.3, 332.3 31.8, 360.11 0.34 M313.27 60.32 C335.31 38.26, 353.99 11.02, 365.75 -0.06 M313.27 60.32 C334.45 37.65, 355.12 14.38, 365.75 -0.06 M318.26 60.68 C335.95 39.48, 352.36 21.7, 370.74 0.3 M318.26 60.68 C333.44 44.5, 347.52 26.64, 370.74 0.3 M323.9 60.28 C334.87 45.69, 349.27 34.42, 376.38 -0.09 M323.9 60.28 C341.81 39.38, 361.44 16.02, 376.38 -0.09 M328.89 60.64 C348.85 39.49, 369.75 15.48, 381.37 0.27 M328.89 60.64 C343.24 43.83, 357.45 27.72, 381.37 0.27 M334.53 60.25 C356.04 35.89, 377.3 11.87, 387.01 -0.13 M334.53 60.25 C351.81 40.14, 370.88 20.14, 387.01 -0.13 M339.52 60.61 C358.47 37.89, 380.02 14.25, 392 0.23 M339.52 60.61 C360.5 36.74, 380.55 12.96, 392 0.23 M345.16 60.22 C358.24 45.54, 368.08 29.92, 397.64 -0.16 M345.16 60.22 C357.94 45.32, 369.9 30.28, 397.64 -0.16 M350.15 60.58 C369.4 42.4, 384.31 20.79, 402.63 0.2 M350.15 60.58 C369.79 37.04, 391.04 12.92, 402.63 0.2 M355.79 60.18 C373.85 37.67, 393.8 17.79, 408.27 -0.2 M355.79 60.18 C376.98 36.15, 396.33 12.77, 408.27 -0.2 M360.78 60.54 C373.77 48.16, 381.56 34.12, 413.26 0.16 M360.78 60.54 C370.87 47.44, 383.83 34.11, 413.26 0.16 M366.42 60.15 C385.04 41.27, 399.65 20, 418.9 -0.23 M366.42 60.15 C380.81 45.3, 394.07 28.81, 418.9 -0.23 M371.41 60.51 C381.32 48.02, 394.52 35.83, 423.89 0.13 M371.41 60.51 C382 47.42, 392.31 36.8, 423.89 0.13 M377.05 60.11 C396.64 34.64, 419.24 10.96, 429.53 -0.26 M377.05 60.11 C393.69 42.02, 408.91 22.96, 429.53 -0.26 M382.04 60.47 C404.42 36.47, 424.33 14.01, 434.52 0.1 M382.04 60.47 C395.1 46.82, 407.6 30.89, 434.52 0.1 M387.68 60.08 C405.55 36.99, 424.98 15.07, 440.16 -0.3 M387.68 60.08 C409.1 37.96, 429.41 13.51, 440.16 -0.3 M392.67 60.44 C409.56 38.98, 428.98 16.84, 445.15 0.06 M392.67 60.44 C405.61 46.41, 417.34 32.35, 445.15 0.06 M398.31 60.04 C415.55 40.15, 432.88 18.06, 450.79 -0.33 M398.31 60.04 C415.57 40.58, 432.16 19.72, 450.79 -0.33 M403.3 60.4 C412.96 47.28, 427.43 35.38, 455.78 0.03 M403.3 60.4 C414.94 45.92, 428.64 31.2, 455.78 0.03 M408.28 60.76 C428.25 42.02, 444.75 20.43, 461.42 -0.37 M408.28 60.76 C424.5 39.98, 442.87 20.2, 461.42 -0.37 M413.93 60.37 C424.83 46.81, 438.84 31.28, 466.41 -0.01 M413.93 60.37 C429.61 42.26, 446.75 23.7, 466.41 -0.01 M418.91 60.73 C433.8 40.91, 453.79 20.99, 471.4 0.35 M418.91 60.73 C438.21 36.96, 457.84 14.46, 471.4 0.35 M424.56 60.33 C441.94 43.85, 458.2 23.99, 477.04 -0.04 M424.56 60.33 C438.71 44.27, 452 29.3, 477.04 -0.04 M429.54 60.69 C446.52 43.67, 460.92 22.37, 482.03 0.32 M429.54 60.69 C443.29 44.21, 455.41 29.64, 482.03 0.32 M435.19 60.3 C452.16 40.19, 471.3 17.36, 487.67 -0.08 M435.19 60.3 C452.25 39.79, 469.64 21.43, 487.67 -0.08 M440.17 60.66 C457.15 39.86, 474.33 23.9, 492.66 0.28 M440.17 60.66 C457.54 40.52, 472.81 22.87, 492.66 0.28 M445.82 60.26 C462.9 39.34, 481.73 21.84, 498.3 -0.11 M445.82 60.26 C460.69 42.82, 475.42 26.94, 498.3 -0.11 M450.8 60.63 C464.66 45.34, 473.78 32.52, 500.66 3.27 M450.8 60.63 C463.84 43.53, 479.34 28.08, 500.66 3.27 M456.45 60.23 C473.45 39.18, 491.94 22.75, 500.4 9.66 M456.45 60.23 C470.79 45.19, 482.79 30.47, 500.4 9.66 M461.43 60.59 C471.59 48.1, 485.96 33.65, 500.8 15.31 M461.43 60.59 C472.81 47.42, 483.39 35.47, 500.8 15.31 M467.08 60.2 C476.95 49.98, 486.56 34.65, 500.54 21.71 M467.08 60.2 C479.55 46.89, 491.58 31.92, 500.54 21.71 M472.06 60.56 C479.86 53.23, 486.18 47.39, 500.28 28.1 M472.06 60.56 C482.55 48.89, 494.42 36.24, 500.28 28.1 M477.71 60.16 C485.35 55.26, 489.93 46.53, 500.67 33.75 M477.71 60.16 C486.92 49.98, 494.16 39.64, 500.67 33.75 M482.69 60.52 C488.64 56.9, 493.43 51.7, 500.41 40.14 M482.69 60.52 C487.88 55.25, 493.27 47.62, 500.41 40.14 M488.34 60.13 C493.3 55.37, 497.25 49.27, 500.8 45.79 M488.34 60.13 C492.3 56.94, 494.36 52.31, 500.8 45.79 M493.32 60.49 C494.7 59.5, 496.89 57.84, 500.54 52.19 M493.32 60.49 C495.5 58.12, 497.63 55.57, 500.54 52.19 M498.97 60.09 C499.34 59.83, 499.72 59.37, 500.28 58.58 M498.97 60.09 C499.37 59.57, 499.83 59.08, 500.28 58.58" stroke="#a5d8ff" stroke-width="0.5" fill="none"></path><path d="M0 0 C175.08 1.34, 349.51 1.09, 500 0 M0 0 C153.3 -0.32, 306.2 -0.49, 500 0 M500 0 C498.85 21.45, 501.53 44.71, 500 60 M500 0 C499.87 19.36, 499.51 39.86, 500 60 M500 60 C345.91 60.61, 192.26 60.32, 0 60 M500 60 C361.54 60.94, 223.07 61.15, 0 60 M0 60 C0.46 38.32, 0.2 16.65, 0 0 M0 60 C-0.92 35.98, -0.81 12.86, 0 0" stroke="#1e1e1e" stroke-width="1" fill="none"></path></g><g transform="translate(130.02597764941447 370) rotate(0 29.29166603088379 12)"><text x="0" y="0" font-family="Cascadia, Segoe UI Emoji" font-size="20px" fill="#1e1e1e" text-anchor="start" style="white-space: pre;" direction="ltr" dominant-baseline="text-before-edge">foods</text></g><g stroke-linecap="round" transform="translate(110.02597764941447 410) rotate(0 250 170)"><path d="M0 0 C164.87 0.77, 329.35 0.65, 500 0 M0 0 C190.64 -0.19, 381.06 -0.15, 500 0 M500 0 C498.76 107.71, 497.41 215.01, 500 340 M500 0 C499.07 97.78, 498.56 196.29, 500 340 M500 340 C375.69 339.59, 250.19 339.85, 0 340 M500 340 C398.83 341.58, 297.73 341.73, 0 340 M0 340 C2.21 255.05, 0.68 167.75, 0 0 M0 340 C0.03 220.15, -0.77 101.75, 0 0" stroke="#1e1e1e" stroke-width="1" fill="none"></path></g><g transform="translate(130.02597764941447 430) rotate(0 11.716666221618652 12)"><text x="0" y="0" font-family="Cascadia, Segoe UI Emoji" font-size="20px" fill="#1e1e1e" text-anchor="start" style="white-space: pre;" direction="ltr" dominant-baseline="text-before-edge">id</text></g><g transform="translate(130.02597764941447 510) rotate(0 41.00833511352539 12)"><text x="0" y="0" font-family="Cascadia, Segoe UI Emoji" font-size="20px" fill="#1e1e1e" text-anchor="start" style="white-space: pre;" direction="ltr" dominant-baseline="text-before-edge">protein</text></g><g transform="translate(130.02597764941447 470) rotate(0 23.433332443237305 12)"><text x="0" y="0" font-family="Cascadia, Segoe UI Emoji" font-size="20px" fill="#1e1e1e" text-anchor="start" style="white-space: pre;" direction="ltr" dominant-baseline="text-before-edge">name</text></g><g transform="translate(130.02597764941447 550) rotate(0 17.575000762939453 12)"><text x="0" y="0" font-family="Cascadia, Segoe UI Emoji" font-size="20px" fill="#1e1e1e" text-anchor="start" style="white-space: pre;" direction="ltr" dominant-baseline="text-before-edge">fat</text></g><g transform="translate(130.02597764941447 590) rotate(0 76.15833282470703 12)"><text x="0" y="0" font-family="Cascadia, Segoe UI Emoji" font-size="20px" fill="#1e1e1e" text-anchor="start" style="white-space: pre;" direction="ltr" dominant-baseline="text-before-edge">saturated_fat</text></g><g transform="translate(350.0259776494145 430) rotate(0 123.0250015258789 12)"><text x="246.0500030517578" y="0" font-family="Cascadia, Segoe UI Emoji" font-size="20px" fill="#1e1e1e" text-anchor="end" style="white-space: pre;" direction="ltr" dominant-baseline="text-before-edge">int, autoinc, notnull</text></g><g transform="translate(530.0259776494145 510) rotate(0 29.29166603088379 12)"><text x="58.58333206176758" y="0" font-family="Cascadia, Segoe UI Emoji" font-size="20px" fill="#1e1e1e" text-anchor="end" style="white-space: pre;" direction="ltr" dominant-baseline="text-before-edge">float</text></g><g transform="translate(541.7426448247074 470) rotate(0 23.433332443237305 12)"><text x="46.86666488647461" y="0" font-family="Cascadia, Segoe UI Emoji" font-size="20px" fill="#1e1e1e" text-anchor="end" style="white-space: pre;" direction="ltr" dominant-baseline="text-before-edge">text</text></g><g transform="translate(530.0259776494145 550) rotate(0 29.29166603088379 12)"><text x="58.58333206176758" y="0" font-family="Cascadia, Segoe UI Emoji" font-size="20px" fill="#1e1e1e" text-anchor="end" style="white-space: pre;" direction="ltr" dominant-baseline="text-before-edge">float</text></g><g transform="translate(530.0259776494145 590) rotate(0 29.29166603088379 12)"><text x="58.58333206176758" y="0" font-family="Cascadia, Segoe UI Emoji" font-size="20px" fill="#1e1e1e" text-anchor="end" style="white-space: pre;" direction="ltr" dominant-baseline="text-before-edge">float</text></g><g transform="translate(530.0259776494145 630) rotate(0 29.29166603088379 12)"><text x="58.58333206176758" y="0" font-family="Cascadia, Segoe UI Emoji" font-size="20px" fill="#1e1e1e" text-anchor="end" style="white-space: pre;" direction="ltr" dominant-baseline="text-before-edge">float</text></g><g transform="translate(530.0259776494145 670) rotate(0 29.29166603088379 12)"><text x="58.58333206176758" y="0" font-family="Cascadia, Segoe UI Emoji" font-size="20px" fill="#1e1e1e" text-anchor="end" style="white-space: pre;" direction="ltr" dominant-baseline="text-before-edge">float</text></g><g transform="translate(530.0259776494145 710) rotate(0 29.29166603088379 12)"><text x="58.58333206176758" y="0" font-family="Cascadia, Segoe UI Emoji" font-size="20px" fill="#1e1e1e" text-anchor="end" style="white-space: pre;" direction="ltr" dominant-baseline="text-before-edge">float</text></g><g transform="translate(130.02597764941447 630) rotate(0 76.15833282470703 12)"><text x="0" y="0" font-family="Cascadia, Segoe UI Emoji" font-size="20px" fill="#1e1e1e" text-anchor="start" style="white-space: pre;" direction="ltr" dominant-baseline="text-before-edge">carbohidrates</text></g><g transform="translate(130.02597764941447 670) rotate(0 29.29166603088379 12)"><text x="0" y="0" font-family="Cascadia, Segoe UI Emoji" font-size="20px" fill="#1e1e1e" text-anchor="start" style="white-space: pre;" direction="ltr" dominant-baseline="text-before-edge">sugar</text></g><g transform="translate(132.02597764941447 709) rotate(0 76.15833282470703 12)"><text x="0" y="0" font-family="Cascadia, Segoe UI Emoji" font-size="20px" fill="#1e1e1e" text-anchor="start" style="white-space: pre;" direction="ltr" dominant-baseline="text-before-edge">dietary_fiber</text></g><g stroke-linecap="round" transform="translate(110.02597764941447 810) rotate(0 250 30)"><path d="M0 0 C0 0, 0 0, 0 0 M0 0 C0 0, 0 0, 0 0 M-0.26 6.4 C0.87 4.59, 1.71 4.28, 4.99 0.36 M-0.26 6.4 C1.41 4.4, 3.13 2.26, 4.99 0.36 M0.13 12.04 C3.36 7.38, 6.53 4.25, 10.63 -0.03 M0.13 12.04 C2.31 9.22, 4.12 6.91, 10.63 -0.03 M-0.13 18.44 C7.01 10.83, 13.11 5.82, 15.62 0.33 M-0.13 18.44 C4.54 12.1, 10.3 6.5, 15.62 0.33 M0.27 24.08 C7.64 17.11, 10.17 9.6, 21.26 -0.07 M0.27 24.08 C7.6 14.41, 15.15 6.74, 21.26 -0.07 M0 30.48 C11.88 20.1, 22.99 8.29, 26.25 0.29 M0 30.48 C6.92 23.26, 14.04 14.8, 26.25 0.29 M-0.26 36.88 C11.64 23.67, 24.24 8.49, 31.89 -0.1 M-0.26 36.88 C12.28 21.99, 24.21 9.07, 31.89 -0.1 M0.14 42.52 C9.77 32.15, 21.58 20.17, 36.88 0.26 M0.14 42.52 C12.55 26.51, 27.29 12.06, 36.88 0.26 M-0.12 48.92 C14.54 30.9, 31.17 13.7, 42.52 -0.14 M-0.12 48.92 C10.7 36.4, 22.48 22.59, 42.52 -0.14 M0.27 54.56 C17.52 34.3, 33.05 14.89, 47.51 0.22 M0.27 54.56 C13.74 40.59, 25.97 25.48, 47.51 0.22 M0.67 60.2 C14.79 44.63, 29.73 30.11, 53.15 -0.17 M0.67 60.2 C14.6 45.06, 26.08 29.76, 53.15 -0.17 M5.65 60.56 C17.76 43.88, 31.98 31.32, 58.14 0.19 M5.65 60.56 C20 44.52, 35.41 27.64, 58.14 0.19 M11.3 60.17 C22.53 46.89, 33.2 34.95, 63.78 -0.21 M11.3 60.17 C26.37 42.22, 41.73 25.11, 63.78 -0.21 M16.28 60.53 C32.37 43.4, 46.37 26.24, 68.77 0.15 M16.28 60.53 C36.29 37.66, 55.62 14.92, 68.77 0.15 M21.93 60.14 C33.73 43.46, 51.1 30.41, 74.41 -0.24 M21.93 60.14 C42.32 36.78, 62.06 13.55, 74.41 -0.24 M26.91 60.5 C47.41 39.56, 66.08 14.27, 79.4 0.12 M26.91 60.5 C38.53 47.43, 49.72 34.85, 79.4 0.12 M32.56 60.1 C42.06 46.89, 56.28 34.61, 85.04 -0.28 M32.56 60.1 C45.75 44.56, 60.52 27.22, 85.04 -0.28 M37.54 60.46 C53 42.9, 66.92 24.93, 90.03 0.08 M37.54 60.46 C57.18 38.47, 75.46 16.63, 90.03 0.08 M43.19 60.07 C60.56 41.21, 80.17 17.78, 95.67 -0.31 M43.19 60.07 C58.16 42.01, 73.25 25.77, 95.67 -0.31 M48.17 60.43 C66.24 40.49, 82.89 16.96, 100.66 0.05 M48.17 60.43 C67.73 37.97, 88.1 13.54, 100.66 0.05 M53.16 60.79 C70.58 41.64, 87 22.3, 106.3 -0.34 M53.16 60.79 C71.91 40.51, 89.52 18.85, 106.3 -0.34 M58.8 60.39 C77.49 37.17, 95.98 15.91, 111.29 0.02 M58.8 60.39 C72.54 43.85, 85.81 28.53, 111.29 0.02 M63.79 60.75 C75.6 47.88, 85.51 36.58, 116.27 0.38 M63.79 60.75 C82.74 38.94, 100.07 19.73, 116.27 0.38 M69.43 60.36 C87.11 42.46, 100.42 24.86, 121.92 -0.02 M69.43 60.36 C86.45 41.09, 103.25 22.63, 121.92 -0.02 M74.42 60.72 C89.13 41.8, 105.91 22.67, 126.91 0.34 M74.42 60.72 C92.12 39.14, 112.25 16.18, 126.91 0.34 M80.06 60.32 C93.39 48.44, 102.62 34.26, 132.55 -0.05 M80.06 60.32 C93.53 42.71, 109.81 26.24, 132.55 -0.05 M85.05 60.68 C104.58 36.45, 128.29 11.8, 137.54 0.31 M85.05 60.68 C97.9 44.23, 111.41 29.47, 137.54 0.31 M90.69 60.29 C103.4 41.8, 119.99 26.02, 143.18 -0.09 M90.69 60.29 C102.29 45.86, 115.38 30.87, 143.18 -0.09 M95.68 60.65 C113.55 39.27, 133.32 18.13, 148.17 0.27 M95.68 60.65 C108.64 45.96, 121.83 30.24, 148.17 0.27 M101.32 60.25 C110.34 49.07, 122.79 34.93, 153.81 -0.12 M101.32 60.25 C115.98 43.59, 129.55 29.09, 153.81 -0.12 M106.31 60.61 C126.89 35.11, 145.67 14.06, 158.8 0.24 M106.31 60.61 C127.88 38.17, 147.3 14.4, 158.8 0.24 M111.95 60.22 C121.49 49.32, 134.62 33, 164.44 -0.16 M111.95 60.22 C123.59 46.06, 136.2 31.76, 164.44 -0.16 M116.94 60.58 C129.56 45.75, 142.85 29.91, 169.43 0.2 M116.94 60.58 C130.86 43.86, 145.33 28.34, 169.43 0.2 M122.58 60.18 C136.78 45.2, 148.96 28.82, 175.07 -0.19 M122.58 60.18 C141.45 37.38, 162.54 14.69, 175.07 -0.19 M127.57 60.55 C148.36 36.38, 165.95 16.06, 180.06 0.17 M127.57 60.55 C142.31 42.9, 155.92 28.12, 180.06 0.17 M133.21 60.15 C154.45 39.19, 171.83 15.62, 185.7 -0.23 M133.21 60.15 C151.45 38.83, 168.9 20.2, 185.7 -0.23 M138.2 60.51 C155.56 43.13, 171.26 23.02, 190.69 0.13 M138.2 60.51 C155.84 39.3, 175.99 19.22, 190.69 0.13 M143.84 60.12 C161.37 37.35, 183.1 15.19, 196.33 -0.26 M143.84 60.12 C158.47 41.65, 175.08 23.5, 196.33 -0.26 M148.83 60.48 C171.33 35.46, 188.7 15.22, 201.32 0.1 M148.83 60.48 C162.86 45.02, 176.76 28.33, 201.32 0.1 M154.47 60.08 C170.45 42.35, 185.44 22.72, 206.96 -0.3 M154.47 60.08 C169.21 45.05, 183.21 28.95, 206.96 -0.3 M159.46 60.44 C179.89 37.83, 198.99 13.16, 211.95 0.06 M159.46 60.44 C176.17 40.11, 195.34 19.06, 211.95 0.06 M165.1 60.05 C178.07 45.63, 188.7 35.01, 217.59 -0.33 M165.1 60.05 C185.51 36.27, 206.11 12.01, 217.59 -0.33 M170.09 60.41 C183.43 46.11, 195.04 33.59, 222.58 0.03 M170.09 60.41 C184.58 42.62, 198.39 26.43, 222.58 0.03 M175.08 60.77 C186.07 44.71, 198.61 31.66, 228.22 -0.36 M175.08 60.77 C186.76 46.38, 199.78 33.16, 228.22 -0.36 M180.72 60.37 C200.32 38.83, 217.17 16.59, 233.21 0 M180.72 60.37 C199.84 36.58, 220.02 14.34, 233.21 0 M185.71 60.73 C195.86 46.31, 209.05 35.13, 238.19 0.36 M185.71 60.73 C202.03 41.56, 218.83 21.45, 238.19 0.36 M191.35 60.34 C210.41 38.31, 228.94 15.23, 243.84 -0.04 M191.35 60.34 C206.14 43.28, 222.3 25.29, 243.84 -0.04 M196.34 60.7 C215.03 41.91, 229.77 20.32, 248.82 0.32 M196.34 60.7 C215.7 38.56, 235.1 16.84, 248.82 0.32 M201.98 60.3 C218.1 41.51, 233.67 25.92, 254.47 -0.07 M201.98 60.3 C216.24 42.74, 232.36 25.42, 254.47 -0.07 M206.97 60.66 C220.5 44.88, 233.95 29.81, 259.45 0.29 M206.97 60.66 C220.53 45.96, 233.72 30.94, 259.45 0.29 M212.61 60.27 C232.19 38.93, 249.32 19.4, 265.1 -0.11 M212.61 60.27 C224.19 48.15, 234.67 35.35, 265.1 -0.11 M217.6 60.63 C229.52 47.71, 238.49 33.78, 270.08 0.25 M217.6 60.63 C231.54 44.16, 244.26 29.93, 270.08 0.25 M223.24 60.23 C238.72 42.8, 249.83 25.26, 275.73 -0.14 M223.24 60.23 C236.12 45.73, 247.79 31.66, 275.73 -0.14 M228.23 60.59 C244 40.7, 260.69 21.14, 280.71 0.22 M228.23 60.59 C241.05 46.69, 253.56 32.45, 280.71 0.22 M233.87 60.2 C250.73 45.06, 263.36 25.41, 286.36 -0.18 M233.87 60.2 C245.09 46.74, 255.19 35.32, 286.36 -0.18 M238.86 60.56 C253.94 47.9, 264.69 31.61, 291.34 0.18 M238.86 60.56 C252.16 46.01, 264.83 31.09, 291.34 0.18 M244.5 60.17 C261.01 39.12, 279.08 20.26, 296.99 -0.21 M244.5 60.17 C258.61 44.44, 272.83 28.2, 296.99 -0.21 M249.49 60.53 C266.79 41.81, 285.77 21.95, 301.97 0.15 M249.49 60.53 C264.67 43.67, 278.93 28.68, 301.97 0.15 M255.13 60.13 C272.25 43.35, 287.76 24.06, 307.62 -0.25 M255.13 60.13 C275.19 37.18, 294.22 14.54, 307.62 -0.25 M260.12 60.49 C275.19 45.84, 288.68 28.96, 312.6 0.11 M260.12 60.49 C277.46 41.26, 294.84 21.22, 312.6 0.11 M265.76 60.1 C287.96 34.43, 305.76 10.13, 318.25 -0.28 M265.76 60.1 C280.74 42.31, 296.73 24.76, 318.25 -0.28 M270.75 60.46 C285.54 45.79, 299.14 28.54, 323.23 0.08 M270.75 60.46 C292.11 36.42, 313.26 11.89, 323.23 0.08 M276.39 60.06 C290.99 40.03, 307.5 23.86, 328.88 -0.31 M276.39 60.06 C294.17 40.13, 311.26 21.13, 328.88 -0.31 M281.38 60.42 C293.21 44.33, 305.08 30.41, 333.86 0.05 M281.38 60.42 C293.19 46.79, 306.4 31.07, 333.86 0.05 M286.37 60.78 C300.63 45.76, 315.25 25.02, 339.51 -0.35 M286.37 60.78 C306.44 37.54, 327.05 13.5, 339.51 -0.35 M292.01 60.39 C305.97 45.65, 317.07 30.62, 344.49 0.01 M292.01 60.39 C312.75 36.93, 332.94 12.92, 344.49 0.01 M297 60.75 C312.44 46.55, 324.04 28.52, 349.48 0.37 M297 60.75 C315.41 39.36, 334.24 19.98, 349.48 0.37 M302.64 60.35 C324.72 35.65, 345.02 11.84, 355.12 -0.02 M302.64 60.35 C323.04 36.64, 344.3 14.31, 355.12 -0.02 M307.63 60.71 C324.99 42.99, 339.3 22.53, 360.11 0.34 M307.63 60.71 C322.02 44.98, 335.06 28.52, 360.11 0.34 M313.27 60.32 C325.97 48, 334.73 33.55, 365.75 -0.06 M313.27 60.32 C330.51 41.67, 348.61 20.99, 365.75 -0.06 M318.26 60.68 C329.44 46.51, 343.47 31.85, 370.74 0.3 M318.26 60.68 C329.99 48.07, 340.54 35.66, 370.74 0.3 M323.9 60.28 C339.46 41.69, 351.92 25.07, 376.38 -0.09 M323.9 60.28 C339.06 42.72, 354.47 24.78, 376.38 -0.09 M328.89 60.64 C342.84 42.74, 360.38 23.97, 381.37 0.27 M328.89 60.64 C349.27 37.18, 369.7 13.58, 381.37 0.27 M334.53 60.25 C352.45 39.75, 369.59 20.93, 387.01 -0.13 M334.53 60.25 C353.34 38.58, 372.21 18.73, 387.01 -0.13 M339.52 60.61 C357.96 39.3, 380.24 13.4, 392 0.23 M339.52 60.61 C350.51 48.01, 361.29 35.05, 392 0.23 M345.16 60.22 C363.43 38.64, 380.7 17.86, 397.64 -0.16 M345.16 60.22 C364.14 37.07, 382.89 16.13, 397.64 -0.16 M350.15 60.58 C369.9 39.2, 389.87 14.91, 402.63 0.2 M350.15 60.58 C365.62 42.94, 379.33 26.21, 402.63 0.2 M355.79 60.18 C371.59 38.56, 390.63 21.22, 408.27 -0.2 M355.79 60.18 C374.28 39.16, 393.03 18.47, 408.27 -0.2 M360.78 60.54 C380.56 39.22, 401.13 13.83, 413.26 0.16 M360.78 60.54 C378.43 37.71, 398.77 17.97, 413.26 0.16 M366.42 60.15 C384.87 41.39, 399.76 18.92, 418.9 -0.23 M366.42 60.15 C384.04 40.57, 401.69 21.12, 418.9 -0.23 M371.41 60.51 C391.71 38.77, 409.45 15.06, 423.89 0.13 M371.41 60.51 C391.96 37.01, 413.27 13.26, 423.89 0.13 M377.05 60.11 C395.9 39.52, 412.9 18.23, 429.53 -0.26 M377.05 60.11 C390.39 42.38, 405.61 25.94, 429.53 -0.26 M382.04 60.47 C396.57 47.94, 405.46 31.05, 434.52 0.1 M382.04 60.47 C398.3 40.49, 416.58 21.11, 434.52 0.1 M387.68 60.08 C400.79 44.17, 418.04 26.19, 440.16 -0.3 M387.68 60.08 C406.73 35.35, 427.45 13.55, 440.16 -0.3 M392.67 60.44 C412.55 37.33, 435.22 11.48, 445.15 0.06 M392.67 60.44 C406.36 43.81, 420.76 27.6, 445.15 0.06 M398.31 60.04 C417.68 37.07, 437.98 13.12, 450.79 -0.33 M398.31 60.04 C409.21 46.7, 420.2 34.35, 450.79 -0.33 M403.3 60.4 C421.32 36.5, 442.8 14.17, 455.78 0.03 M403.3 60.4 C421.31 41.77, 437.18 23.09, 455.78 0.03 M408.28 60.76 C425.21 40.3, 446.96 18.42, 461.42 -0.37 M408.28 60.76 C422.7 43.78, 437.21 27.47, 461.42 -0.37 M413.93 60.37 C428.75 44.41, 439.65 31.03, 466.41 -0.01 M413.93 60.37 C432.12 38.09, 449.52 18.07, 466.41 -0.01 M418.91 60.73 C434.29 43.15, 451.3 22.59, 471.4 0.35 M418.91 60.73 C436.03 42.82, 450.12 25.12, 471.4 0.35 M424.56 60.33 C443.95 37.67, 465.25 12.35, 477.04 -0.04 M424.56 60.33 C436.07 47.74, 446.76 33.4, 477.04 -0.04 M429.54 60.69 C449.26 38.34, 470.36 12.76, 482.03 0.32 M429.54 60.69 C450.41 37.01, 470 14.25, 482.03 0.32 M435.19 60.3 C450.72 43.83, 467.48 24.61, 487.67 -0.08 M435.19 60.3 C455 38.29, 472.99 15.47, 487.67 -0.08 M440.17 60.66 C455.42 40.68, 474.31 20.26, 492.66 0.28 M440.17 60.66 C453.1 46.81, 463.32 33.18, 492.66 0.28 M445.82 60.26 C465.2 39.69, 482.81 20.04, 498.3 -0.11 M445.82 60.26 C456.97 45.9, 469 32.75, 498.3 -0.11 M450.8 60.63 C467.27 39.65, 485.52 20.02, 501.98 1.76 M450.8 60.63 C463.45 45.5, 477.46 28.09, 501.98 1.76 M456.45 60.23 C471.22 45.6, 485.32 26.17, 501.72 8.16 M456.45 60.23 C474.21 40.38, 491.09 21.15, 501.72 8.16 M461.43 60.59 C475.54 44.25, 489.46 26.19, 502.11 13.8 M461.43 60.59 C475.32 44.88, 489.08 28.14, 502.11 13.8 M467.08 60.2 C475.16 50.85, 481.51 42.39, 501.85 20.2 M467.08 60.2 C475.1 51.95, 482.7 42.54, 501.85 20.2 M472.06 60.56 C480.16 51.26, 485.22 43.61, 502.24 25.84 M472.06 60.56 C480.72 49.38, 489.64 39.56, 502.24 25.84 M477.71 60.16 C485.32 54.4, 489.23 44.06, 501.98 32.24 M477.71 60.16 C485.7 52.15, 493.38 43.82, 501.98 32.24 M482.69 60.52 C488.81 54.71, 496.56 43.54, 501.72 38.63 M482.69 60.52 C488.78 53.89, 496.29 46.51, 501.72 38.63 M488.34 60.13 C492.15 54.13, 496.39 51.4, 502.11 44.28 M488.34 60.13 C493.77 54.43, 498.63 46.91, 502.11 44.28 M493.32 60.49 C494.71 59.22, 497.24 55.36, 501.85 50.68 M493.32 60.49 C495.85 57.73, 497.76 56.5, 501.85 50.68 M498.97 60.09 C499.67 58.34, 500.96 57.11, 502.25 56.32 M498.97 60.09 C499.85 59.27, 500.25 58.5, 502.25 56.32" stroke="#a5d8ff" stroke-width="0.5" fill="none"></path><path d="M0 0 C161.28 1.01, 323.99 1.86, 500 0 M0 0 C172.96 2.1, 345.64 1.65, 500 0 M500 0 C498.81 14.89, 499.97 30.2, 500 60 M500 0 C499.75 19.14, 500.14 36.95, 500 60 M500 60 C337.72 60.99, 173.8 61.28, 0 60 M500 60 C326.17 58.6, 152.05 58.32, 0 60 M0 60 C2.16 42.63, 1.33 26.69, 0 0 M0 60 C0.62 37.49, 0.02 15.36, 0 0" stroke="#1e1e1e" stroke-width="1" fill="none"></path></g><g transform="translate(130.02597764941447 830) rotate(0 76.15833282470703 12)"><text x="0" y="0" font-family="Cascadia, Segoe UI Emoji" font-size="20px" fill="#1e1e1e" text-anchor="start" style="white-space: pre;" direction="ltr" dominant-baseline="text-before-edge">serving_sizes</text></g><g stroke-linecap="round" transform="translate(110.02597764941447 870) rotate(0 250 90)"><path d="M0 0 C116.73 1.36, 233.18 0.38, 500 0 M0 0 C102.35 -1.2, 204.37 -0.84, 500 0 M500 0 C498.61 52.91, 499.1 101.68, 500 180 M500 0 C501.02 65.55, 500.67 131.97, 500 180 M500 180 C327.77 180.71, 156.87 179.61, 0 180 M500 180 C388.65 180.57, 277.01 180.54, 0 180 M0 180 C-0.64 118.84, -0.4 55.48, 0 0 M0 180 C-0.81 110.13, 0.26 40.91, 0 0" stroke="#1e1e1e" stroke-width="1" fill="none"></path></g><g transform="translate(130.02597764941447 890) rotate(0 11.716666221618652 12)"><text x="0" y="0" font-family="Cascadia, Segoe UI Emoji" font-size="20px" fill="#1e1e1e" text-anchor="start" style="white-space: pre;" direction="ltr" dominant-baseline="text-before-edge">id</text></g><g transform="translate(130.02597764941447 930) rotate(0 23.433332443237305 12)"><text x="0" y="0" font-family="Cascadia, Segoe UI Emoji" font-size="20px" fill="#1e1e1e" text-anchor="start" style="white-space: pre;" direction="ltr" dominant-baseline="text-before-edge">name</text></g><g transform="translate(130.02597764941447 970) rotate(0 105.44999694824219 12)"><text x="0" y="0" font-family="Cascadia, Segoe UI Emoji" font-size="20px" fill="#1e1e1e" text-anchor="start" style="white-space: pre;" direction="ltr" dominant-baseline="text-before-edge">quantity_in_gramms</text></g><g transform="translate(130.02597764941447 1010) rotate(0 41.00833511352539 12)"><text x="0" y="0" font-family="Cascadia, Segoe UI Emoji" font-size="20px" fill="#1e1e1e" text-anchor="start" style="white-space: pre;" direction="ltr" dominant-baseline="text-before-edge">food_id</text></g><g transform="translate(350.0259776494145 890) rotate(0 123.0250015258789 12)"><text x="246.0500030517578" y="0" font-family="Cascadia, Segoe UI Emoji" font-size="20px" fill="#1e1e1e" text-anchor="end" style="white-space: pre;" direction="ltr" dominant-baseline="text-before-edge">int, autoinc, notnull</text></g><g transform="translate(541.7426448247074 930) rotate(0 23.433332443237305 12)"><text x="46.86666488647461" y="0" font-family="Cascadia, Segoe UI Emoji" font-size="20px" fill="#1e1e1e" text-anchor="end" style="white-space: pre;" direction="ltr" dominant-baseline="text-before-edge">text</text></g><g transform="translate(530.0259776494145 970) rotate(0 29.29166603088379 12)"><text x="58.58333206176758" y="0" font-family="Cascadia, Segoe UI Emoji" font-size="20px" fill="#1e1e1e" text-anchor="end" style="white-space: pre;" direction="ltr" dominant-baseline="text-before-edge">float</text></g><g transform="translate(553.4593081853031 1010) rotate(0 17.575000762939453 12)"><text x="35.150001525878906" y="0" font-family="Cascadia, Segoe UI Emoji" font-size="20px" fill="#1e1e1e" text-anchor="end" style="white-space: pre;" direction="ltr" dominant-baseline="text-before-edge">int</text></g><g stroke-linecap="round"><g transform="translate(110.02597764941447 1030) rotate(0 -50.012988824707236 -289.7258836968906)"><path d="M0 0 C-34.61 -1.46, -65.28 -0.13, -100 0 M-100 0 C-99.31 -221.91, -99.8 -444.34, -100.03 -579.45 M-100.03 -579.45 C-64.45 -577.84, -26.51 -578.1, -1 -578.45" stroke="#1e1e1e" stroke-width="1.5" fill="none" stroke-dasharray="8 9"></path></g><g transform="translate(110.02597764941447 1030) rotate(0 -50.012988824707236 -289.7258836968906)"><path d="M-29.09 -567.92 C-21.14 -572, -9.21 -574.17, -1 -578.45" stroke="#1e1e1e" stroke-width="1.5" fill="none"></path></g><g transform="translate(110.02597764941447 1030) rotate(0 -50.012988824707236 -289.7258836968906)"><path d="M-29.29 -588.44 C-21.2 -585.69, -9.2 -581.04, -1 -578.45" stroke="#1e1e1e" stroke-width="1.5" fill="none"></path></g></g><mask></mask><g stroke-linecap="round" transform="translate(810.0259776494145 450) rotate(0 250 30)"><path d="M0 0 C0 0, 0 0, 0 0 M0 0 C0 0, 0 0, 0 0 M-0.26 6.4 C1.68 4.79, 3.87 2.95, 4.99 0.36 M-0.26 6.4 C1.81 4.26, 3.39 1.77, 4.99 0.36 M0.13 12.04 C3.39 7.54, 8.48 2.91, 10.63 -0.03 M0.13 12.04 C4.11 7.96, 7.25 3.65, 10.63 -0.03 M-0.13 18.44 C2.23 11.6, 7.73 7.4, 15.62 0.33 M-0.13 18.44 C4.61 14.98, 6.6 9.35, 15.62 0.33 M0.27 24.08 C5.57 15.24, 14.57 8.16, 21.26 -0.07 M0.27 24.08 C5.33 17.87, 12.45 10.62, 21.26 -0.07 M0 30.48 C8.08 16.69, 18.94 8.27, 26.25 0.29 M0 30.48 C9.94 18.92, 21.28 6, 26.25 0.29 M-0.26 36.88 C7.73 26.72, 16.83 16.96, 31.89 -0.1 M-0.26 36.88 C11.59 22.81, 23.96 8.28, 31.89 -0.1 M0.14 42.52 C8.17 32.6, 16.02 24.18, 36.88 0.26 M0.14 42.52 C13.14 26.09, 27.84 10.37, 36.88 0.26 M-0.12 48.92 C15.62 34.29, 27.53 19.75, 42.52 -0.14 M-0.12 48.92 C13.94 32.14, 30.59 14.56, 42.52 -0.14 M0.27 54.56 C13.22 39.11, 26.18 24.97, 47.51 0.22 M0.27 54.56 C13.01 40.45, 23.79 27.62, 47.51 0.22 M0.67 60.2 C19.1 37.1, 35.62 18.09, 53.15 -0.17 M0.67 60.2 C16.13 42.14, 32.6 22.7, 53.15 -0.17 M5.65 60.56 C23.66 42.95, 36.05 25.7, 58.14 0.19 M5.65 60.56 C25.55 37.27, 46.53 12.73, 58.14 0.19 M11.3 60.17 C22.99 48.08, 32.89 32.63, 63.78 -0.21 M11.3 60.17 C31.47 36.97, 52.33 12.33, 63.78 -0.21 M16.28 60.53 C37.39 36.91, 56 15.05, 68.77 0.15 M16.28 60.53 C31.85 43.76, 47.82 25.42, 68.77 0.15 M21.93 60.14 C42.2 38.65, 58.78 15.33, 74.41 -0.24 M21.93 60.14 C37.99 40.16, 56.08 20.02, 74.41 -0.24 M26.91 60.5 C40.81 46.12, 49.4 32.52, 79.4 0.12 M26.91 60.5 C45.61 39.79, 63.67 19.31, 79.4 0.12 M32.56 60.1 C43.68 44.86, 56.14 31.9, 85.04 -0.28 M32.56 60.1 C49.7 39.14, 67.81 18.98, 85.04 -0.28 M37.54 60.46 C49.63 45.78, 64.47 26.12, 90.03 0.08 M37.54 60.46 C54.66 42.52, 71.14 21.96, 90.03 0.08 M43.19 60.07 C64.46 37.04, 83.91 15.03, 95.67 -0.31 M43.19 60.07 C61.34 39, 79.49 17.09, 95.67 -0.31 M48.17 60.43 C65.94 40.36, 83.36 18.5, 100.66 0.05 M48.17 60.43 C60.25 46.41, 71.39 33.02, 100.66 0.05 M53.16 60.79 C65.53 48.5, 77.19 33.76, 106.3 -0.34 M53.16 60.79 C66.04 45.81, 77.32 31.92, 106.3 -0.34 M58.8 60.39 C73.7 40.88, 89.13 24.02, 111.29 0.02 M58.8 60.39 C72.6 45.45, 84.84 28.45, 111.29 0.02 M63.79 60.75 C80.94 43.35, 97.52 25.29, 116.27 0.38 M63.79 60.75 C82.23 40.51, 101.44 17.28, 116.27 0.38 M69.43 60.36 C86.58 41.38, 106.48 21.01, 121.92 -0.02 M69.43 60.36 C83.9 42.1, 99.08 25.71, 121.92 -0.02 M74.42 60.72 C95.15 37.99, 114.77 11.59, 126.91 0.34 M74.42 60.72 C86.15 47.84, 98.46 32.94, 126.91 0.34 M80.06 60.32 C93.87 44.7, 105.86 33.88, 132.55 -0.05 M80.06 60.32 C96.5 39.26, 114.11 19.5, 132.55 -0.05 M85.05 60.68 C97.74 47.73, 106.36 35.28, 137.54 0.31 M85.05 60.68 C99.04 45.77, 111.6 31.16, 137.54 0.31 M90.69 60.29 C108.71 39.35, 127.97 17.66, 143.18 -0.09 M90.69 60.29 C105.98 42.37, 122.89 23.97, 143.18 -0.09 M95.68 60.65 C107.53 44.24, 124.1 32.04, 148.17 0.27 M95.68 60.65 C114.95 38.71, 135.79 15.48, 148.17 0.27 M101.32 60.25 C115.24 43.02, 129.62 29.92, 153.81 -0.12 M101.32 60.25 C113.72 44.26, 128.42 29.5, 153.81 -0.12 M106.31 60.61 C118.01 46.25, 127.5 34.03, 158.8 0.24 M106.31 60.61 C119.1 47.62, 130.36 32.99, 158.8 0.24 M111.95 60.22 C125.15 41.92, 140.12 25.67, 164.44 -0.16 M111.95 60.22 C130.83 40.18, 149.66 19.71, 164.44 -0.16 M116.94 60.58 C138.46 38.18, 158.37 15.99, 169.43 0.2 M116.94 60.58 C127.58 48.65, 139.21 36.59, 169.43 0.2 M122.58 60.18 C136.57 42.26, 153.28 21.11, 175.07 -0.19 M122.58 60.18 C135.89 45.03, 149.77 28.94, 175.07 -0.19 M127.57 60.55 C146.51 38.57, 166.39 16.18, 180.06 0.17 M127.57 60.55 C147.19 36.54, 168.26 14.72, 180.06 0.17 M133.21 60.15 C145.51 45.16, 159.79 28.56, 185.7 -0.23 M133.21 60.15 C154.74 35.91, 174.91 12.32, 185.7 -0.23 M138.2 60.51 C152.73 44.58, 166.18 28.43, 190.69 0.13 M138.2 60.51 C157.87 38.71, 177.23 15.56, 190.69 0.13 M143.84 60.12 C164.46 37.32, 182.82 14.85, 196.33 -0.26 M143.84 60.12 C158.08 43.81, 171.83 28.07, 196.33 -0.26 M148.83 60.48 C161.99 46.13, 172.19 32.38, 201.32 0.1 M148.83 60.48 C165.03 41.81, 180.59 23.24, 201.32 0.1 M154.47 60.08 C175.9 36.63, 195.07 15.39, 206.96 -0.3 M154.47 60.08 C171.57 40.69, 186.47 23.94, 206.96 -0.3 M159.46 60.44 C174.19 41.23, 190.42 25, 211.95 0.06 M159.46 60.44 C171.41 45.01, 183.85 31.26, 211.95 0.06 M165.1 60.05 C176.38 45.67, 187.3 35.23, 217.59 -0.33 M165.1 60.05 C178.21 43.37, 194.37 27.65, 217.59 -0.33 M170.09 60.41 C179.78 47.58, 189.92 36.13, 222.58 0.03 M170.09 60.41 C186.67 41.94, 203.69 22.44, 222.58 0.03 M175.08 60.77 C194.1 38.08, 214.22 15.22, 228.22 -0.36 M175.08 60.77 C190.02 44.45, 202.95 29.25, 228.22 -0.36 M180.72 60.37 C199.43 40.75, 216.48 18.38, 233.21 0 M180.72 60.37 C192.74 45.74, 203.79 32.17, 233.21 0 M185.71 60.73 C196.86 46.8, 207.63 34.11, 238.19 0.36 M185.71 60.73 C197.91 45.66, 209.62 31.61, 238.19 0.36 M191.35 60.34 C204.83 44.21, 219.94 25.74, 243.84 -0.04 M191.35 60.34 C211.61 37.96, 231.61 14.83, 243.84 -0.04 M196.34 60.7 C213.21 38.53, 231.59 19.42, 248.82 0.32 M196.34 60.7 C212.05 40.16, 230.28 20.73, 248.82 0.32 M201.98 60.3 C216.8 45.15, 228.26 28.7, 254.47 -0.07 M201.98 60.3 C215.73 42.78, 230.82 26.68, 254.47 -0.07 M206.97 60.66 C223.18 41.63, 239.18 22.94, 259.45 0.29 M206.97 60.66 C226.11 39.84, 244.89 19.05, 259.45 0.29 M212.61 60.27 C225 43.77, 240.29 32.04, 265.1 -0.11 M212.61 60.27 C223.63 48.6, 234.91 34.76, 265.1 -0.11 M217.6 60.63 C228.79 46.86, 244.23 31.54, 270.08 0.25 M217.6 60.63 C232.91 43.6, 246.96 28.68, 270.08 0.25 M223.24 60.23 C237.09 43.96, 254.35 25.35, 275.73 -0.14 M223.24 60.23 C238.65 44.43, 251.9 27.65, 275.73 -0.14 M228.23 60.59 C241.58 40.84, 257.08 25.01, 280.71 0.22 M228.23 60.59 C246.32 38.9, 265.78 17.03, 280.71 0.22 M233.87 60.2 C246.5 45.54, 263.1 27.3, 286.36 -0.18 M233.87 60.2 C253.72 36.75, 274.63 14.36, 286.36 -0.18 M238.86 60.56 C256.84 39.07, 276.36 17.28, 291.34 0.18 M238.86 60.56 C258.87 38.8, 278.06 16.19, 291.34 0.18 M244.5 60.17 C255.45 46.14, 269.45 31.42, 296.99 -0.21 M244.5 60.17 C260.64 39.57, 278.58 20.38, 296.99 -0.21 M249.49 60.53 C263.74 43.83, 281.59 26.17, 301.97 0.15 M249.49 60.53 C262.87 45.69, 274.49 30.38, 301.97 0.15 M255.13 60.13 C266.41 49.29, 275.63 34.32, 307.62 -0.25 M255.13 60.13 C266.66 45.21, 279.36 32.19, 307.62 -0.25 M260.12 60.49 C271.84 49.33, 282.2 34.49, 312.6 0.11 M260.12 60.49 C269.65 47.36, 281.53 36, 312.6 0.11 M265.76 60.1 C287.87 36.16, 307.34 11.27, 318.25 -0.28 M265.76 60.1 C281.97 41.55, 297.8 24.75, 318.25 -0.28 M270.75 60.46 C287.05 40.46, 305.48 20.8, 323.23 0.08 M270.75 60.46 C291.03 37.16, 309.88 15.9, 323.23 0.08 M276.39 60.06 C297.45 36.14, 315 15.14, 328.88 -0.31 M276.39 60.06 C293.45 41.92, 310.13 21.45, 328.88 -0.31 M281.38 60.42 C295.3 43.19, 310.26 26.06, 333.86 0.05 M281.38 60.42 C292.57 47.1, 304.2 32.75, 333.86 0.05 M286.37 60.78 C304.16 37.64, 323.13 18.44, 339.51 -0.35 M286.37 60.78 C304.57 39.64, 322.14 20.21, 339.51 -0.35 M292.01 60.39 C310.28 40.1, 325.62 20.8, 344.49 0.01 M292.01 60.39 C309.31 39.26, 327.34 19.7, 344.49 0.01 M297 60.75 C309.82 45.88, 320.63 32.76, 349.48 0.37 M297 60.75 C315.19 40.27, 334.84 19.13, 349.48 0.37 M302.64 60.35 C321.43 35.79, 340.96 14.74, 355.12 -0.02 M302.64 60.35 C313.85 47.56, 326.99 33.05, 355.12 -0.02 M307.63 60.71 C328.94 38.35, 346.52 13.38, 360.11 0.34 M307.63 60.71 C322.15 44.54, 337.3 26.79, 360.11 0.34 M313.27 60.32 C326.82 46.71, 338.77 30.66, 365.75 -0.06 M313.27 60.32 C328.92 43.12, 343.17 26.81, 365.75 -0.06 M318.26 60.68 C333.26 41, 353.14 22.5, 370.74 0.3 M318.26 60.68 C334.72 41.88, 352.87 20.32, 370.74 0.3 M323.9 60.28 C341.84 40.9, 357.43 19.85, 376.38 -0.09 M323.9 60.28 C337.42 45.68, 350.33 28.79, 376.38 -0.09 M328.89 60.64 C346.6 43.21, 362.16 22.32, 381.37 0.27 M328.89 60.64 C342.27 45.02, 357.95 28.89, 381.37 0.27 M334.53 60.25 C351.12 41.58, 364 26.14, 387.01 -0.13 M334.53 60.25 C355.84 36.37, 375.72 12.79, 387.01 -0.13 M339.52 60.61 C352.48 45.24, 364.95 31.23, 392 0.23 M339.52 60.61 C358.13 38, 378.11 17.72, 392 0.23 M345.16 60.22 C362.13 41.52, 376.47 23.87, 397.64 -0.16 M345.16 60.22 C361.19 41.96, 375.36 25.47, 397.64 -0.16 M350.15 60.58 C360 46.07, 371.97 35.36, 402.63 0.2 M350.15 60.58 C369.07 38.6, 389.14 16.78, 402.63 0.2 M355.79 60.18 C367.32 46.64, 378.29 33.74, 408.27 -0.2 M355.79 60.18 C368.57 46.44, 379.09 33.23, 408.27 -0.2 M360.78 60.54 C370.92 49.7, 381.38 35.01, 413.26 0.16 M360.78 60.54 C371.23 47.91, 382.42 36.19, 413.26 0.16 M366.42 60.15 C384.41 39.34, 402.21 17.95, 418.9 -0.23 M366.42 60.15 C377.81 46.37, 388.71 34.08, 418.9 -0.23 M371.41 60.51 C386.47 45.86, 397.83 29.36, 423.89 0.13 M371.41 60.51 C387.11 41.27, 402.9 23.01, 423.89 0.13 M377.05 60.11 C395.14 37.21, 416.49 15.2, 429.53 -0.26 M377.05 60.11 C397.32 36.74, 416.84 13.28, 429.53 -0.26 M382.04 60.47 C404.21 37.11, 425.27 11.52, 434.52 0.1 M382.04 60.47 C402.98 36.9, 423.54 12.31, 434.52 0.1 M387.68 60.08 C404.09 41.51, 416.27 24.86, 440.16 -0.3 M387.68 60.08 C408.97 37.25, 428.3 13.82, 440.16 -0.3 M392.67 60.44 C411.83 36.03, 434.35 13.84, 445.15 0.06 M392.67 60.44 C410.46 40.31, 426.92 21.27, 445.15 0.06 M398.31 60.04 C415.01 39.31, 433.38 17.18, 450.79 -0.33 M398.31 60.04 C418.57 35.75, 439.07 11.58, 450.79 -0.33 M403.3 60.4 C425.5 35.86, 444.19 14.32, 455.78 0.03 M403.3 60.4 C420.61 43.37, 435.76 24.19, 455.78 0.03 M408.28 60.76 C426.55 42.14, 444.76 19.87, 461.42 -0.37 M408.28 60.76 C423.85 42.3, 438.49 25.36, 461.42 -0.37 M413.93 60.37 C429.99 37.76, 451.02 20.07, 466.41 -0.01 M413.93 60.37 C425.68 48.55, 435.21 34.95, 466.41 -0.01 M418.91 60.73 C433.93 44.03, 448.57 29.25, 471.4 0.35 M418.91 60.73 C434.4 44.89, 447.71 27.54, 471.4 0.35 M424.56 60.33 C446.45 36.69, 464.96 13.08, 477.04 -0.04 M424.56 60.33 C437.76 45.74, 449 31.62, 477.04 -0.04 M429.54 60.69 C446.6 42.6, 460.05 24.72, 482.03 0.32 M429.54 60.69 C444.91 43.03, 459.39 27.7, 482.03 0.32 M435.19 60.3 C447.68 46.54, 461.83 31.53, 487.67 -0.08 M435.19 60.3 C452.91 40.27, 472.06 18.66, 487.67 -0.08 M440.17 60.66 C459.91 40.69, 479.94 17.16, 492.66 0.28 M440.17 60.66 C459.37 38.73, 476.93 17.6, 492.66 0.28 M445.82 60.26 C463.97 35.83, 483.92 13.07, 498.3 -0.11 M445.82 60.26 C466.84 37.05, 486.72 13.04, 498.3 -0.11 M450.8 60.63 C459.09 50.23, 471.11 36.07, 500.66 3.27 M450.8 60.63 C462.08 46.21, 474.88 32.69, 500.66 3.27 M456.45 60.23 C468.21 47.98, 480.3 30.46, 500.4 9.66 M456.45 60.23 C471.8 44.63, 485.2 27.51, 500.4 9.66 M461.43 60.59 C472.33 44.33, 486.17 31.53, 500.8 15.31 M461.43 60.59 C469.59 50.35, 478.67 40.43, 500.8 15.31 M467.08 60.2 C481.37 43.47, 493.81 31.8, 500.54 21.71 M467.08 60.2 C476.07 50.88, 484.4 39.55, 500.54 21.71 M472.06 60.56 C480.03 53.89, 484.84 47.26, 500.28 28.1 M472.06 60.56 C481.16 49.48, 490.15 40.19, 500.28 28.1 M477.71 60.16 C484.26 51.73, 493.29 41.62, 500.67 33.75 M477.71 60.16 C486.82 49.46, 495.73 39.19, 500.67 33.75 M482.69 60.52 C489.29 54.31, 498.39 45.1, 500.41 40.14 M482.69 60.52 C486.01 55.64, 491.89 49.34, 500.41 40.14 M488.34 60.13 C491.64 55.2, 495.45 52.18, 500.8 45.79 M488.34 60.13 C490.93 56.19, 494.28 53.33, 500.8 45.79 M493.32 60.49 C494.46 57.33, 496.93 55.3, 500.54 52.19 M493.32 60.49 C495.1 58.51, 497.09 57.09, 500.54 52.19 M498.97 60.09 C499.51 59.52, 500.07 58.88, 500.28 58.58 M498.97 60.09 C499.41 59.76, 499.67 59.33, 500.28 58.58" stroke="#a5d8ff" stroke-width="0.5" fill="none"></path><path d="M0 0 C104.15 0.17, 208.45 -0.12, 500 0 M0 0 C153.85 1.15, 307.91 0.97, 500 0 M500 0 C502.36 15.51, 499.13 30.08, 500 60 M500 0 C499.86 20.57, 501.32 40.98, 500 60 M500 60 C335.25 60.71, 169.02 59.94, 0 60 M500 60 C361.25 58.05, 221.59 58.42, 0 60 M0 60 C-1.67 38.79, -0.72 18.6, 0 0 M0 60 C-1.32 40.19, 0.39 20.63, 0 0" stroke="#1e1e1e" stroke-width="1" fill="none"></path></g><g transform="translate(830.0259776494145 470) rotate(0 64.44166564941406 12)"><text x="0" y="0" font-family="Cascadia, Segoe UI Emoji" font-size="20px" fill="#1e1e1e" text-anchor="start" style="white-space: pre;" direction="ltr" dominant-baseline="text-before-edge">ingredients</text></g><g stroke-linecap="round" transform="translate(810.0259776494145 510) rotate(0 250 70)"><path d="M0 0 C140.7 0.03, 281.11 0.89, 500 0 M0 0 C120.04 0.01, 240.29 0.48, 500 0 M500 0 C500.12 46.8, 502.23 96.48, 500 140 M500 0 C499.88 54.43, 499.39 108.92, 500 140 M500 140 C348.38 141.51, 197.17 141.85, 0 140 M500 140 C389.21 138.15, 279.19 138.35, 0 140 M0 140 C0.54 104.16, 1.48 69.38, 0 0 M0 140 C2.02 91.61, 1.13 44.2, 0 0" stroke="#1e1e1e" stroke-width="1" fill="none"></path></g><g transform="translate(830.0259776494145 530) rotate(0 41.00833511352539 12)"><text x="0" y="0" font-family="Cascadia, Segoe UI Emoji" font-size="20px" fill="#1e1e1e" text-anchor="start" style="white-space: pre;" direction="ltr" dominant-baseline="text-before-edge">food_id</text></g><g transform="translate(830.0259776494145 570) rotate(0 87.875 12)"><text x="0" y="0" font-family="Cascadia, Segoe UI Emoji" font-size="20px" fill="#1e1e1e" text-anchor="start" style="white-space: pre;" direction="ltr" dominant-baseline="text-before-edge">serving_size_id</text></g><g transform="translate(830.0259776494145 610) rotate(0 52.724998474121094 12)"><text x="0" y="0" font-family="Cascadia, Segoe UI Emoji" font-size="20px" fill="#1e1e1e" text-anchor="start" style="white-space: pre;" direction="ltr" dominant-baseline="text-before-edge">recipe_id</text></g><g transform="translate(1250.0259776494145 530) rotate(0 17.575000762939453 12)"><text x="35.150001525878906" y="0" font-family="Cascadia, Segoe UI Emoji" font-size="20px" fill="#1e1e1e" text-anchor="end" style="white-space: pre;" direction="ltr" dominant-baseline="text-before-edge">int</text></g><g transform="translate(1250.0259776494145 570) rotate(0 17.575000762939453 12)"><text x="35.150001525878906" y="0" font-family="Cascadia, Segoe UI Emoji" font-size="20px" fill="#1e1e1e" text-anchor="end" style="white-space: pre;" direction="ltr" dominant-baseline="text-before-edge">int</text></g><g transform="translate(1250.0259776494145 610) rotate(0 17.575000762939453 12)"><text x="35.150001525878906" y="0" font-family="Cascadia, Segoe UI Emoji" font-size="20px" fill="#1e1e1e" text-anchor="end" style="white-space: pre;" direction="ltr" dominant-baseline="text-before-edge">int</text></g><g transform="translate(70.02597764941447 410) rotate(0 5.858333110809326 12)"><text x="0" y="0" font-family="Cascadia, Segoe UI Emoji" font-size="20px" fill="#1e1e1e" text-anchor="start" style="white-space: pre;" direction="ltr" dominant-baseline="text-before-edge">1</text></g><g transform="translate(90.02597764941447 1000) rotate(0 5.858333110809326 12)"><text x="0" y="0" font-family="Cascadia, Segoe UI Emoji" font-size="20px" fill="#1e1e1e" text-anchor="start" style="white-space: pre;" direction="ltr" dominant-baseline="text-before-edge">*</text></g><g stroke-linecap="round"><g transform="translate(810.0259776494145 550) rotate(0 -100 -50)"><path d="M0 0 C-20.45 -1.58, -39.36 -0.15, -100 0 M-100 0 C-98.81 -27.04, -99.63 -51.45, -100 -100 M-100 -100 C-125.65 -100.56, -153.29 -100.09, -200 -100" stroke="#1e1e1e" stroke-width="1.5" fill="none" stroke-dasharray="8 9"></path></g><g transform="translate(810.0259776494145 550) rotate(0 -100 -50)"><path d="M-171.85 -110.37 C-177.82 -109.56, -182.26 -106.04, -200 -100" stroke="#1e1e1e" stroke-width="1.5" fill="none"></path></g><g transform="translate(810.0259776494145 550) rotate(0 -100 -50)"><path d="M-171.77 -89.85 C-177.78 -93.17, -182.23 -93.78, -200 -100" stroke="#1e1e1e" stroke-width="1.5" fill="none"></path></g></g><mask></mask><g stroke-linecap="round"><g transform="translate(810.0259776494145 590) rotate(0 -100 160)"><path d="M0 0 C-20.1 -2.07, -39.24 0.74, -100 0 M-100 0 C-101.55 85.4, -99.17 167.25, -100 320 M-100 320 C-131.81 321.27, -162.81 318.84, -200 320" stroke="#1e1e1e" stroke-width="1.5" fill="none" stroke-dasharray="8 9"></path></g><g transform="translate(810.0259776494145 590) rotate(0 -100 160)"><path d="M-171.9 309.5 C-177.35 309.91, -181.83 314.87, -200 320" stroke="#1e1e1e" stroke-width="1.5" fill="none"></path></g><g transform="translate(810.0259776494145 590) rotate(0 -100 160)"><path d="M-171.72 330.02 C-177.17 326.25, -181.68 327.01, -200 320" stroke="#1e1e1e" stroke-width="1.5" fill="none"></path></g></g><mask></mask><g stroke-linecap="round"><g transform="translate(1310.0259776494145 630) rotate(0 100 -90)"><path d="M0 0 C30.35 0.24, 62.48 -0.28, 100 0 M100 0 C101.04 -70.12, 99.87 -139.09, 100 -180 M100 -180 C127.11 -181.88, 150.35 -179.7, 200 -180" stroke="#1e1e1e" stroke-width="1.5" fill="none" stroke-dasharray="8 9"></path></g><g transform="translate(1310.0259776494145 630) rotate(0 100 -90)"><path d="M171.75 -169.9 C179.08 -173.02, 188.22 -176.77, 200 -180" stroke="#1e1e1e" stroke-width="1.5" fill="none"></path></g><g transform="translate(1310.0259776494145 630) rotate(0 100 -90)"><path d="M171.87 -190.42 C179.23 -186.97, 188.33 -184.15, 200 -180" stroke="#1e1e1e" stroke-width="1.5" fill="none"></path></g></g><mask></mask><g stroke-linecap="round" transform="translate(1510.0259776494145 770) rotate(0 250 30)"><path d="M0 0 C0 0, 0 0, 0 0 M0 0 C0 0, 0 0, 0 0 M-0.26 6.4 C1.17 5.21, 3.97 2.72, 4.99 0.36 M-0.26 6.4 C1.03 4.45, 2.51 2.51, 4.99 0.36 M0.13 12.04 C2.77 8.63, 7.74 4.25, 10.63 -0.03 M0.13 12.04 C3.38 8.92, 6.9 5.11, 10.63 -0.03 M-0.13 18.44 C4.99 15.05, 6.56 12.32, 15.62 0.33 M-0.13 18.44 C3.05 13.24, 9.12 8.8, 15.62 0.33 M0.27 24.08 C5.5 17.24, 11.18 8.02, 21.26 -0.07 M0.27 24.08 C8.2 14.7, 16.14 4.97, 21.26 -0.07 M0 30.48 C10.14 19.06, 20.07 9.59, 26.25 0.29 M0 30.48 C5.83 23.7, 13.32 16.64, 26.25 0.29 M-0.26 36.88 C9.5 26.98, 17.67 16.89, 31.89 -0.1 M-0.26 36.88 C7.23 29, 15.42 19.79, 31.89 -0.1 M0.14 42.52 C9.19 32.24, 13.48 27.06, 36.88 0.26 M0.14 42.52 C10.76 28.4, 22.15 16.59, 36.88 0.26 M-0.12 48.92 C10.44 35.01, 19.4 23.14, 42.52 -0.14 M-0.12 48.92 C13.36 33.78, 25.99 18.02, 42.52 -0.14 M0.27 54.56 C18.29 33.84, 38.11 12.42, 47.51 0.22 M0.27 54.56 C17.58 34.47, 34.89 15.12, 47.51 0.22 M0.67 60.2 C20.46 37.73, 41.52 11.64, 53.15 -0.17 M0.67 60.2 C12.58 46.44, 23.73 33.74, 53.15 -0.17 M5.65 60.56 C24.62 36.86, 45.96 16.46, 58.14 0.19 M5.65 60.56 C18.84 46.13, 30.23 30.3, 58.14 0.19 M11.3 60.17 C26.18 46.28, 39.16 27.93, 63.78 -0.21 M11.3 60.17 C31.11 38.11, 48.85 16.02, 63.78 -0.21 M16.28 60.53 C29.18 45.49, 43.1 28.61, 68.77 0.15 M16.28 60.53 C28.03 47.3, 39.82 34.63, 68.77 0.15 M21.93 60.14 C37.38 42.33, 50.82 24.07, 74.41 -0.24 M21.93 60.14 C38.76 39.72, 55.42 20.84, 74.41 -0.24 M26.91 60.5 C46.39 38.61, 64.29 20.09, 79.4 0.12 M26.91 60.5 C42.31 42.02, 56.11 24.83, 79.4 0.12 M32.56 60.1 C44.83 45.94, 57.8 30.41, 85.04 -0.28 M32.56 60.1 C46.85 43.19, 60.58 27.55, 85.04 -0.28 M37.54 60.46 C58.28 36.4, 76.57 14.81, 90.03 0.08 M37.54 60.46 C51.17 44.62, 66.53 27.37, 90.03 0.08 M43.19 60.07 C57 48.74, 67.8 33.64, 95.67 -0.31 M43.19 60.07 C61.78 38.45, 79.53 16.59, 95.67 -0.31 M48.17 60.43 C61.69 41.59, 76.02 28.06, 100.66 0.05 M48.17 60.43 C66.18 39.3, 84.59 17.52, 100.66 0.05 M53.16 60.79 C64.1 48.54, 78.19 31.38, 106.3 -0.34 M53.16 60.79 C69.19 43.15, 82.93 25.23, 106.3 -0.34 M58.8 60.39 C70.27 44.49, 84.29 31.49, 111.29 0.02 M58.8 60.39 C73.83 42.37, 90.73 23.98, 111.29 0.02 M63.79 60.75 C84.89 39.32, 104.49 14.89, 116.27 0.38 M63.79 60.75 C85.31 36.37, 105.78 11.94, 116.27 0.38 M69.43 60.36 C81.11 46.13, 91.66 32.43, 121.92 -0.02 M69.43 60.36 C81.85 45.17, 94.67 29.42, 121.92 -0.02 M74.42 60.72 C91.54 40.97, 107.29 21.42, 126.91 0.34 M74.42 60.72 C93.14 38.45, 112.5 16.49, 126.91 0.34 M80.06 60.32 C93.23 43.18, 108.62 26.68, 132.55 -0.05 M80.06 60.32 C99.12 39.01, 118.27 17.64, 132.55 -0.05 M85.05 60.68 C98.03 46.92, 107.63 35.1, 137.54 0.31 M85.05 60.68 C97.65 45.72, 110.77 30.49, 137.54 0.31 M90.69 60.29 C109.52 38.96, 125.25 21.6, 143.18 -0.09 M90.69 60.29 C106.57 41.35, 123.47 23.88, 143.18 -0.09 M95.68 60.65 C116.47 39.95, 135.02 18.07, 148.17 0.27 M95.68 60.65 C112.8 42.17, 128.91 22.06, 148.17 0.27 M101.32 60.25 C115.97 41.56, 134.43 22.22, 153.81 -0.12 M101.32 60.25 C112.03 46.54, 123.13 33.22, 153.81 -0.12 M106.31 60.61 C122.96 42.78, 139.22 21.54, 158.8 0.24 M106.31 60.61 C126.65 37.13, 147.4 13.93, 158.8 0.24 M111.95 60.22 C124.52 47.53, 137.29 30.88, 164.44 -0.16 M111.95 60.22 C130.53 40, 148.8 18.9, 164.44 -0.16 M116.94 60.58 C129.75 44.56, 145.4 27.83, 169.43 0.2 M116.94 60.58 C133.15 41.77, 147.61 23.84, 169.43 0.2 M122.58 60.18 C133.47 48.22, 143.51 33.52, 175.07 -0.19 M122.58 60.18 C139.87 40.31, 158.34 18.67, 175.07 -0.19 M127.57 60.55 C147.45 40.17, 167.28 13.81, 180.06 0.17 M127.57 60.55 C138.32 46.4, 150.99 33.59, 180.06 0.17 M133.21 60.15 C147.03 43.53, 164.4 25.57, 185.7 -0.23 M133.21 60.15 C146.76 44.97, 160.55 28.15, 185.7 -0.23 M138.2 60.51 C151.49 44.21, 163.66 33.25, 190.69 0.13 M138.2 60.51 C156.9 39.1, 174.72 17.92, 190.69 0.13 M143.84 60.12 C155.57 45.15, 166.71 31.2, 196.33 -0.26 M143.84 60.12 C161.11 40.42, 176.88 22.99, 196.33 -0.26 M148.83 60.48 C165.62 41.78, 181.9 22.88, 201.32 0.1 M148.83 60.48 C162.39 46.47, 174.3 31.45, 201.32 0.1 M154.47 60.08 C171.58 40.23, 190.52 18.75, 206.96 -0.3 M154.47 60.08 C168.89 43.35, 184.94 26.37, 206.96 -0.3 M159.46 60.44 C171.09 46.84, 180.58 33.54, 211.95 0.06 M159.46 60.44 C171.01 47.66, 182.89 34.16, 211.95 0.06 M165.1 60.05 C184.11 36.86, 207.19 14.51, 217.59 -0.33 M165.1 60.05 C184.17 38.29, 204.39 14.28, 217.59 -0.33 M170.09 60.41 C181.02 45.78, 195.87 33.1, 222.58 0.03 M170.09 60.41 C181.84 48.04, 194.62 33.57, 222.58 0.03 M175.08 60.77 C189.66 43.06, 210 21.34, 228.22 -0.36 M175.08 60.77 C192.3 40.43, 210.45 20.41, 228.22 -0.36 M180.72 60.37 C191.39 48.88, 205.58 34.36, 233.21 0 M180.72 60.37 C199.58 39.98, 216.65 19.22, 233.21 0 M185.71 60.73 C203.19 41.28, 222.58 18.21, 238.19 0.36 M185.71 60.73 C201.77 42.68, 218.59 24.16, 238.19 0.36 M191.35 60.34 C209.06 42.8, 223.08 23.28, 243.84 -0.04 M191.35 60.34 C205 45.13, 220.32 29.21, 243.84 -0.04 M196.34 60.7 C209.77 41.45, 226.66 27.21, 248.82 0.32 M196.34 60.7 C207.84 48.79, 218.88 35.44, 248.82 0.32 M201.98 60.3 C221.87 37.15, 240 17.72, 254.47 -0.07 M201.98 60.3 C216.67 45.75, 229.22 29.19, 254.47 -0.07 M206.97 60.66 C227.69 37.34, 243.57 15.91, 259.45 0.29 M206.97 60.66 C225.64 39.52, 246.42 17.21, 259.45 0.29 M212.61 60.27 C233.22 38.01, 253.74 12.87, 265.1 -0.11 M212.61 60.27 C232.56 37.33, 250.89 15.22, 265.1 -0.11 M217.6 60.63 C238.3 39.22, 256.67 13.16, 270.08 0.25 M217.6 60.63 C231.18 45.92, 244.42 29.84, 270.08 0.25 M223.24 60.23 C236.38 44.23, 251.31 25.57, 275.73 -0.14 M223.24 60.23 C233.9 48.64, 246.14 35.94, 275.73 -0.14 M228.23 60.59 C241.77 44.98, 254.35 28.31, 280.71 0.22 M228.23 60.59 C246.09 41.56, 263.2 21.04, 280.71 0.22 M233.87 60.2 C247.9 46.2, 259.73 28.99, 286.36 -0.18 M233.87 60.2 C243.84 47.96, 254.71 34.3, 286.36 -0.18 M238.86 60.56 C251.07 44.07, 266.57 30.97, 291.34 0.18 M238.86 60.56 C251.88 45.39, 266.01 29.28, 291.34 0.18 M244.5 60.17 C260.09 44.01, 271.03 26.93, 296.99 -0.21 M244.5 60.17 C262 38.94, 280.84 19.95, 296.99 -0.21 M249.49 60.53 C264.21 43.6, 281.51 25.47, 301.97 0.15 M249.49 60.53 C262.65 45.26, 277.19 28.86, 301.97 0.15 M255.13 60.13 C273.65 37.37, 295.85 15.69, 307.62 -0.25 M255.13 60.13 C276.23 36.27, 295.47 12.76, 307.62 -0.25 M260.12 60.49 C273.02 45.58, 288.96 27.85, 312.6 0.11 M260.12 60.49 C279.89 39, 296.98 19.26, 312.6 0.11 M265.76 60.1 C283.84 38.83, 304.62 17.35, 318.25 -0.28 M265.76 60.1 C281.11 42.65, 295.85 25.65, 318.25 -0.28 M270.75 60.46 C289.03 39.33, 307.11 18.3, 323.23 0.08 M270.75 60.46 C288.08 39.53, 305.14 20.27, 323.23 0.08 M276.39 60.06 C295.6 37.34, 310.19 19.18, 328.88 -0.31 M276.39 60.06 C297.36 36.61, 317.34 12.39, 328.88 -0.31 M281.38 60.42 C292.24 44.17, 305.36 32, 333.86 0.05 M281.38 60.42 C300.19 38.9, 317.92 17.78, 333.86 0.05 M286.37 60.78 C303.67 41.23, 319.15 24.49, 339.51 -0.35 M286.37 60.78 C298.67 48.66, 309.43 35.97, 339.51 -0.35 M292.01 60.39 C311.32 36.69, 331.52 14.05, 344.49 0.01 M292.01 60.39 C313.01 37.95, 333.9 13.68, 344.49 0.01 M297 60.75 C316.36 37.98, 337.1 13.47, 349.48 0.37 M297 60.75 C309.68 47.33, 319.57 34.81, 349.48 0.37 M302.64 60.35 C320.39 38.57, 336.59 19.82, 355.12 -0.02 M302.64 60.35 C320.76 36.78, 340.15 16.24, 355.12 -0.02 M307.63 60.71 C322.83 43.8, 338.41 26.76, 360.11 0.34 M307.63 60.71 C323.55 41.7, 339.98 22.28, 360.11 0.34 M313.27 60.32 C331.88 41.82, 347.61 19.64, 365.75 -0.06 M313.27 60.32 C324.4 48.52, 335.45 33.93, 365.75 -0.06 M318.26 60.68 C335.64 39.52, 353.78 19.12, 370.74 0.3 M318.26 60.68 C337.41 38.79, 355.42 17.46, 370.74 0.3 M323.9 60.28 C343.97 37.2, 362.58 15.54, 376.38 -0.09 M323.9 60.28 C335.77 48.06, 347.47 33.9, 376.38 -0.09 M328.89 60.64 C341.45 46.54, 352.47 30.76, 381.37 0.27 M328.89 60.64 C348.9 37.47, 368.73 16.17, 381.37 0.27 M334.53 60.25 C352.31 38.12, 372.75 17.13, 387.01 -0.13 M334.53 60.25 C347.58 43.56, 362.82 27.92, 387.01 -0.13 M339.52 60.61 C349.55 47.82, 361.56 36.18, 392 0.23 M339.52 60.61 C359.58 37.57, 379.72 12.34, 392 0.23 M345.16 60.22 C361.72 40.77, 380.74 21.61, 397.64 -0.16 M345.16 60.22 C357.27 47.19, 369.79 32.87, 397.64 -0.16 M350.15 60.58 C370.25 36.99, 388.95 13.41, 402.63 0.2 M350.15 60.58 C361.58 47.08, 371.32 35.26, 402.63 0.2 M355.79 60.18 C375.81 36.77, 398.21 10.46, 408.27 -0.2 M355.79 60.18 C372.73 40.1, 391.18 19.58, 408.27 -0.2 M360.78 60.54 C380 38.49, 403.34 12.36, 413.26 0.16 M360.78 60.54 C372.43 47.77, 384.29 34.87, 413.26 0.16 M366.42 60.15 C378.65 46.65, 391.99 31.13, 418.9 -0.23 M366.42 60.15 C376.66 46.54, 388.11 35.33, 418.9 -0.23 M371.41 60.51 C382.85 48.3, 393.84 31.25, 423.89 0.13 M371.41 60.51 C391.75 37.63, 411.57 14.68, 423.89 0.13 M377.05 60.11 C389.78 45.31, 402.16 34.01, 429.53 -0.26 M377.05 60.11 C390.05 44.7, 402.99 30.23, 429.53 -0.26 M382.04 60.47 C400.26 36.85, 422.12 15.42, 434.52 0.1 M382.04 60.47 C394.44 46.82, 405.38 31.59, 434.52 0.1 M387.68 60.08 C401.2 44.53, 411.95 31.46, 440.16 -0.3 M387.68 60.08 C402.69 43.79, 416.55 26.7, 440.16 -0.3 M392.67 60.44 C404.65 47.7, 416.14 32.6, 445.15 0.06 M392.67 60.44 C409.81 41.2, 425.83 23, 445.15 0.06 M398.31 60.04 C415.72 41.65, 433.65 18.22, 450.79 -0.33 M398.31 60.04 C407.92 48.25, 420.61 35.5, 450.79 -0.33 M403.3 60.4 C418.94 41.55, 437 24.16, 455.78 0.03 M403.3 60.4 C419.44 40.93, 436.37 22.01, 455.78 0.03 M408.28 60.76 C418.16 47.43, 430.96 35.26, 461.42 -0.37 M408.28 60.76 C421.84 45.79, 433.36 31.49, 461.42 -0.37 M413.93 60.37 C429.06 44.17, 442.63 29.72, 466.41 -0.01 M413.93 60.37 C433.03 38.01, 450.53 16.56, 466.41 -0.01 M418.91 60.73 C436.26 39.23, 451.63 19.4, 471.4 0.35 M418.91 60.73 C432.81 45.97, 445.23 29.33, 471.4 0.35 M424.56 60.33 C439.59 46.72, 452.76 30.96, 477.04 -0.04 M424.56 60.33 C438.83 42.7, 454.96 26.07, 477.04 -0.04 M429.54 60.69 C442.08 43.98, 458.33 29.3, 482.03 0.32 M429.54 60.69 C439.7 48.3, 451.03 35.68, 482.03 0.32 M435.19 60.3 C454.92 37.11, 474.74 15.21, 487.67 -0.08 M435.19 60.3 C454.01 39.97, 473.2 17.63, 487.67 -0.08 M440.17 60.66 C456.04 42.6, 471.26 22.82, 492.66 0.28 M440.17 60.66 C459.49 38.28, 479.12 14.92, 492.66 0.28 M445.82 60.26 C459.14 46.04, 470.3 33.7, 498.3 -0.11 M445.82 60.26 C466.22 37.13, 487.31 11.94, 498.3 -0.11 M450.8 60.63 C464.48 47.25, 475.09 30.35, 501.98 1.76 M450.8 60.63 C461.7 45.98, 473.26 33.54, 501.98 1.76 M456.45 60.23 C471.4 45, 482.37 29.36, 501.72 8.16 M456.45 60.23 C466.14 49.35, 477.69 36.7, 501.72 8.16 M461.43 60.59 C471.75 48.29, 479.7 39, 502.11 13.8 M461.43 60.59 C470.77 49.63, 480.21 40.62, 502.11 13.8 M467.08 60.2 C475.14 50.57, 484.04 38.7, 501.85 20.2 M467.08 60.2 C476.73 50.37, 485.7 38.55, 501.85 20.2 M472.06 60.56 C482.5 51.1, 493.24 37.22, 502.24 25.84 M472.06 60.56 C483.5 46.73, 495.01 33.93, 502.24 25.84 M477.71 60.16 C482.18 53.23, 490.25 46.79, 501.98 32.24 M477.71 60.16 C484.06 52.57, 490.5 46.76, 501.98 32.24 M482.69 60.52 C486.03 53.38, 494.14 49.71, 501.72 38.63 M482.69 60.52 C489.44 52.44, 495.96 44.38, 501.72 38.63 M488.34 60.13 C493.1 53.66, 496.33 50.55, 502.11 44.28 M488.34 60.13 C492.57 55.36, 498.99 48.31, 502.11 44.28 M493.32 60.49 C495.56 56.08, 499.3 54.32, 501.85 50.68 M493.32 60.49 C496.61 56.8, 498.47 54.06, 501.85 50.68 M498.97 60.09 C499.63 58.99, 500.65 57.89, 502.25 56.32 M498.97 60.09 C500.22 58.71, 501.41 57.54, 502.25 56.32" stroke="#a5d8ff" stroke-width="0.5" fill="none"></path><path d="M0 0 C153.67 0.63, 305.53 0.04, 500 0 M0 0 C192.66 1.48, 384.77 2.01, 500 0 M500 0 C499.86 23.47, 498.08 45.6, 500 60 M500 0 C499.68 23.06, 499.88 48.22, 500 60 M500 60 C368.41 59.29, 237.81 59.86, 0 60 M500 60 C340.98 58.94, 182.57 59.07, 0 60 M0 60 C-1.49 37.82, 0.78 11.03, 0 0 M0 60 C0.15 40.42, -1.15 19.3, 0 0" stroke="#1e1e1e" stroke-width="1" fill="none"></path></g><g transform="translate(1530.0259776494145 790) rotate(0 29.29166603088379 12)"><text x="0" y="0" font-family="Cascadia, Segoe UI Emoji" font-size="20px" fill="#1e1e1e" text-anchor="start" style="white-space: pre;" direction="ltr" dominant-baseline="text-before-edge">steps</text></g><g stroke-linecap="round" transform="translate(1510.0259776494145 830) rotate(0 250 70)"><path d="M0 0 C145.9 -1.32, 292.96 -1.85, 500 0 M0 0 C108.92 1.11, 218.87 0.47, 500 0 M500 0 C498.64 33.34, 502.16 62.89, 500 140 M500 0 C500.16 37.63, 499.6 73.79, 500 140 M500 140 C367.01 140.39, 232.9 139.08, 0 140 M500 140 C383.16 141.65, 266.07 141.06, 0 140 M0 140 C1.73 110.3, 1.97 85.78, 0 0 M0 140 C-1.6 102.78, -0.23 67.13, 0 0" stroke="#1e1e1e" stroke-width="1" fill="none"></path></g><g transform="translate(1530.0259776494145 850) rotate(0 11.716666221618652 12)"><text x="0" y="0" font-family="Cascadia, Segoe UI Emoji" font-size="20px" fill="#1e1e1e" text-anchor="start" style="white-space: pre;" direction="ltr" dominant-baseline="text-before-edge">id</text></g><g transform="translate(1530.0259776494145 930) rotate(0 52.724998474121094 12)"><text x="0" y="0" font-family="Cascadia, Segoe UI Emoji" font-size="20px" fill="#1e1e1e" text-anchor="start" style="white-space: pre;" direction="ltr" dominant-baseline="text-before-edge">recipe_id</text></g><g transform="translate(1530.0259776494145 890) rotate(0 64.44166564941406 12)"><text x="0" y="0" font-family="Cascadia, Segoe UI Emoji" font-size="20px" fill="#1e1e1e" text-anchor="start" style="white-space: pre;" direction="ltr" dominant-baseline="text-before-edge">description</text></g><g transform="translate(1750.0259776494145 850) rotate(0 123.0250015258789 12)"><text x="246.0500030517578" y="0" font-family="Cascadia, Segoe UI Emoji" font-size="20px" fill="#1e1e1e" text-anchor="end" style="white-space: pre;" direction="ltr" dominant-baseline="text-before-edge">int, autoinc, notnull</text></g><g transform="translate(1890.62598375293 890) rotate(0 52.724998474121094 12)"><text x="105.44999694824219" y="0" font-family="Cascadia, Segoe UI Emoji" font-size="20px" fill="#1e1e1e" text-anchor="end" style="white-space: pre;" direction="ltr" dominant-baseline="text-before-edge">long text</text></g><g transform="translate(1960.3259730717778 930) rotate(0 17.575000762939453 12)"><text x="35.150001525878906" y="0" font-family="Cascadia, Segoe UI Emoji" font-size="20px" fill="#1e1e1e" text-anchor="end" style="white-space: pre;" direction="ltr" dominant-baseline="text-before-edge">int</text></g><g stroke-linecap="round"><g transform="translate(2010.0259776494145 870) rotate(0 50.05173008653196 -170.0514353565137)"><path d="M0 79.9 C29.76 80.24, 61.92 79.6, 100.1 79.9 M100.1 79.9 C100.68 -70.54, 99.96 -221.72, 100.1 -420 M100.1 -420 C71.25 -419.16, 46.83 -418.58, 0 -420" stroke="#1e1e1e" stroke-width="1.5" fill="none" stroke-dasharray="8 9"></path></g><g transform="translate(2010.0259776494145 870) rotate(0 50.05173008653196 -170.0514353565137)"><path d="M28.4 -429.66 C19.35 -425.6, 12.76 -423.33, 0 -420" stroke="#1e1e1e" stroke-width="1.5" fill="none"></path></g><g transform="translate(2010.0259776494145 870) rotate(0 50.05173008653196 -170.0514353565137)"><path d="M27.97 -409.14 C19.19 -411.27, 12.74 -415.19, 0 -420" stroke="#1e1e1e" stroke-width="1.5" fill="none"></path></g></g><mask></mask><g transform="translate(2050.0259776494145 415) rotate(0 5.858333110809326 12)"><text x="0" y="0" font-family="Cascadia, Segoe UI Emoji" font-size="20px" fill="#1e1e1e" text-anchor="start" style="white-space: pre;" direction="ltr" dominant-baseline="text-before-edge">1</text></g><g transform="translate(2023.0259776494145 922) rotate(0 5.858333110809326 12)"><text x="0" y="0" font-family="Cascadia, Segoe UI Emoji" font-size="20px" fill="#1e1e1e" text-anchor="start" style="white-space: pre;" direction="ltr" dominant-baseline="text-before-edge">*</text></g><g stroke-linecap="round" transform="translate(1510.0259776494145 350) rotate(0 250 30)"><path d="M0 0 C0 0, 0 0, 0 0 M0 0 C0 0, 0 0, 0 0 M-0.26 6.4 C0.39 4.42, 2.42 4.06, 4.99 0.36 M-0.26 6.4 C1.44 4.8, 3.1 2.16, 4.99 0.36 M0.13 12.04 C5.05 8.55, 7.31 4.42, 10.63 -0.03 M0.13 12.04 C2.15 9.08, 6.16 5.45, 10.63 -0.03 M-0.13 18.44 C6.22 11.72, 8.9 9.17, 15.62 0.33 M-0.13 18.44 C5.72 12.93, 8.65 8.04, 15.62 0.33 M0.27 24.08 C8.65 18.36, 13.6 8.2, 21.26 -0.07 M0.27 24.08 C5.03 18.76, 10.44 13.3, 21.26 -0.07 M0 30.48 C6.14 20.56, 14.41 13.77, 26.25 0.29 M0 30.48 C5.87 23.1, 12.29 17.71, 26.25 0.29 M-0.26 36.88 C11.21 24.12, 22.72 7.98, 31.89 -0.1 M-0.26 36.88 C6.46 28.55, 13.99 19.51, 31.89 -0.1 M0.14 42.52 C8.69 31.38, 20.69 20.9, 36.88 0.26 M0.14 42.52 C11.53 27.47, 23.99 14.34, 36.88 0.26 M-0.12 48.92 C16.63 29.15, 31.62 11.45, 42.52 -0.14 M-0.12 48.92 C14.73 31.04, 31.08 13.9, 42.52 -0.14 M0.27 54.56 C10.64 42.06, 26.03 27.76, 47.51 0.22 M0.27 54.56 C18.25 33.65, 34.89 14.32, 47.51 0.22 M0.67 60.2 C14.56 44.62, 28.83 24.42, 53.15 -0.17 M0.67 60.2 C18.52 39.71, 35.26 20.02, 53.15 -0.17 M5.65 60.56 C22.08 42.57, 36.95 24.86, 58.14 0.19 M5.65 60.56 C19.22 45.22, 31.15 31.3, 58.14 0.19 M11.3 60.17 C24.1 45.59, 36.6 31.06, 63.78 -0.21 M11.3 60.17 C24.68 45.38, 38.47 29.25, 63.78 -0.21 M16.28 60.53 C35.75 41.12, 54.58 17.01, 68.77 0.15 M16.28 60.53 C33.04 43.46, 48.62 23.83, 68.77 0.15 M21.93 60.14 C34.16 47.44, 46.67 32.86, 74.41 -0.24 M21.93 60.14 C40.05 38.93, 58.05 19.36, 74.41 -0.24 M26.91 60.5 C39.39 48.25, 52.79 31.18, 79.4 0.12 M26.91 60.5 C42.48 42.21, 58.29 25.03, 79.4 0.12 M32.56 60.1 C48.26 40.4, 67.2 19.43, 85.04 -0.28 M32.56 60.1 C47.57 42.58, 60.68 26.53, 85.04 -0.28 M37.54 60.46 C54.05 42.89, 67.92 25.13, 90.03 0.08 M37.54 60.46 C49.9 46.06, 61.45 31.78, 90.03 0.08 M43.19 60.07 C56.36 46.82, 70.84 29.81, 95.67 -0.31 M43.19 60.07 C60.56 39.67, 76.6 20.78, 95.67 -0.31 M48.17 60.43 C63.19 45.85, 78.2 27.92, 100.66 0.05 M48.17 60.43 C61.81 44.01, 75.81 28.22, 100.66 0.05 M53.16 60.79 C68.13 43.94, 84.63 26.61, 106.3 -0.34 M53.16 60.79 C66.51 45.93, 81.18 29.36, 106.3 -0.34 M58.8 60.39 C75.91 42.68, 91.58 26.3, 111.29 0.02 M58.8 60.39 C74.3 44.51, 87.89 26.92, 111.29 0.02 M63.79 60.75 C80.57 44.78, 92.2 26.35, 116.27 0.38 M63.79 60.75 C81.72 40.73, 99.13 22.59, 116.27 0.38 M69.43 60.36 C82.3 43, 97.48 28.3, 121.92 -0.02 M69.43 60.36 C81.98 45.54, 94.97 30.77, 121.92 -0.02 M74.42 60.72 C90.2 40.15, 107.35 23.11, 126.91 0.34 M74.42 60.72 C90.65 40.3, 109.06 21.58, 126.91 0.34 M80.06 60.32 C93.66 43.96, 108.04 26.54, 132.55 -0.05 M80.06 60.32 C94.85 44.52, 107.93 28.98, 132.55 -0.05 M85.05 60.68 C106.12 35.7, 126.72 11.82, 137.54 0.31 M85.05 60.68 C96.29 47.2, 107.69 35.37, 137.54 0.31 M90.69 60.29 C113.12 35.77, 130.26 11.84, 143.18 -0.09 M90.69 60.29 C110.56 37.24, 129.06 14.01, 143.18 -0.09 M95.68 60.65 C110.58 41.78, 128.83 21.1, 148.17 0.27 M95.68 60.65 C116.13 39.24, 135.61 16.73, 148.17 0.27 M101.32 60.25 C115.12 43.55, 128.46 27.18, 153.81 -0.12 M101.32 60.25 C119.14 40.24, 134.25 22.07, 153.81 -0.12 M106.31 60.61 C124.34 42.52, 138.69 22.31, 158.8 0.24 M106.31 60.61 C125.74 37.82, 147.28 15.22, 158.8 0.24 M111.95 60.22 C128.76 42, 142.65 21.99, 164.44 -0.16 M111.95 60.22 C130.12 38.19, 148.15 18.15, 164.44 -0.16 M116.94 60.58 C134.72 44.02, 148.39 26, 169.43 0.2 M116.94 60.58 C132.63 41.77, 148.29 22.53, 169.43 0.2 M122.58 60.18 C142.75 40.82, 159.92 18.06, 175.07 -0.19 M122.58 60.18 C135.37 44.52, 148.43 31.08, 175.07 -0.19 M127.57 60.55 C140.12 45.05, 152.13 28.53, 180.06 0.17 M127.57 60.55 C144.91 39.32, 163.06 18.55, 180.06 0.17 M133.21 60.15 C153.32 36.6, 172.47 13.09, 185.7 -0.23 M133.21 60.15 C148.65 40.83, 165.94 22.54, 185.7 -0.23 M138.2 60.51 C152.51 41.32, 171.21 24.25, 190.69 0.13 M138.2 60.51 C159.01 38.25, 177.58 13.72, 190.69 0.13 M143.84 60.12 C162.24 37.73, 180.98 17.73, 196.33 -0.26 M143.84 60.12 C163.23 36.38, 183.74 14.9, 196.33 -0.26 M148.83 60.48 C168.86 35.42, 188.4 11.59, 201.32 0.1 M148.83 60.48 C163.03 43.8, 177.28 26.84, 201.32 0.1 M154.47 60.08 C166.73 44.38, 180.64 27.55, 206.96 -0.3 M154.47 60.08 C172.5 37.99, 193.28 16.96, 206.96 -0.3 M159.46 60.44 C179.99 38.77, 199.39 14.95, 211.95 0.06 M159.46 60.44 C178.24 39.5, 195.92 17.7, 211.95 0.06 M165.1 60.05 C177.57 44.68, 189.71 31.13, 217.59 -0.33 M165.1 60.05 C183.24 40.75, 199.58 20.59, 217.59 -0.33 M170.09 60.41 C189.14 39.58, 205.75 16.57, 222.58 0.03 M170.09 60.41 C185.65 42.7, 201.3 24.99, 222.58 0.03 M175.08 60.77 C192.63 38.83, 212.78 17.99, 228.22 -0.36 M175.08 60.77 C188.17 43.85, 201.57 28.49, 228.22 -0.36 M180.72 60.37 C198.98 38.89, 219.54 16.67, 233.21 0 M180.72 60.37 C194.25 44.9, 208.4 28.31, 233.21 0 M185.71 60.73 C204.89 40.14, 222.63 17.1, 238.19 0.36 M185.71 60.73 C198.71 45.49, 210.37 31.95, 238.19 0.36 M191.35 60.34 C205.98 42.7, 219.11 25.63, 243.84 -0.04 M191.35 60.34 C211.48 37.22, 230.37 15.71, 243.84 -0.04 M196.34 60.7 C213.99 43.01, 228.14 25.91, 248.82 0.32 M196.34 60.7 C209.33 44.38, 224.94 26.53, 248.82 0.32 M201.98 60.3 C219.1 40.67, 235.33 22.44, 254.47 -0.07 M201.98 60.3 C213.84 44.27, 228.21 29.81, 254.47 -0.07 M206.97 60.66 C220.84 46.22, 233.5 28.44, 259.45 0.29 M206.97 60.66 C224.19 41.79, 238.99 24.06, 259.45 0.29 M212.61 60.27 C224.16 45.53, 237.94 34.49, 265.1 -0.11 M212.61 60.27 C224.29 46.98, 237.07 32.18, 265.1 -0.11 M217.6 60.63 C232.82 45.96, 244.66 30.99, 270.08 0.25 M217.6 60.63 C236.52 37.16, 257.69 15.12, 270.08 0.25 M223.24 60.23 C236.65 43.59, 250.37 31.71, 275.73 -0.14 M223.24 60.23 C242.54 37.83, 262.09 14.89, 275.73 -0.14 M228.23 60.59 C245.6 40.33, 266.85 18.92, 280.71 0.22 M228.23 60.59 C242.78 45.66, 256.67 29.02, 280.71 0.22 M233.87 60.2 C251.47 41.25, 267.95 21.31, 286.36 -0.18 M233.87 60.2 C247.38 45.97, 260.22 29.76, 286.36 -0.18 M238.86 60.56 C254.62 42.48, 273.6 21.8, 291.34 0.18 M238.86 60.56 C251.73 46.55, 265.11 31.88, 291.34 0.18 M244.5 60.17 C266.57 35.64, 288.13 10.4, 296.99 -0.21 M244.5 60.17 C263.73 38.6, 282.81 15.15, 296.99 -0.21 M249.49 60.53 C267.41 39.08, 286.54 15.76, 301.97 0.15 M249.49 60.53 C265.7 40.75, 282.99 20.39, 301.97 0.15 M255.13 60.13 C264.9 48.83, 277.82 36.22, 307.62 -0.25 M255.13 60.13 C272.22 39.83, 290.6 21.59, 307.62 -0.25 M260.12 60.49 C272.38 45.83, 286.19 31.21, 312.6 0.11 M260.12 60.49 C271.43 46.8, 283.91 31.91, 312.6 0.11 M265.76 60.1 C280.07 43.46, 291.63 29.39, 318.25 -0.28 M265.76 60.1 C280.96 41.86, 295.1 26.34, 318.25 -0.28 M270.75 60.46 C284.89 42.2, 302.54 23.23, 323.23 0.08 M270.75 60.46 C281.15 48.41, 294.24 33.61, 323.23 0.08 M276.39 60.06 C286.76 47.31, 302.27 31.13, 328.88 -0.31 M276.39 60.06 C290.6 44.68, 304.05 27.36, 328.88 -0.31 M281.38 60.42 C297.12 45.61, 309.92 26.22, 333.86 0.05 M281.38 60.42 C294.7 46.91, 307.15 31.27, 333.86 0.05 M286.37 60.78 C298.06 46.52, 308.96 37.83, 339.51 -0.35 M286.37 60.78 C299.31 43.99, 314.64 29.05, 339.51 -0.35 M292.01 60.39 C308.49 42.16, 321.93 28.24, 344.49 0.01 M292.01 60.39 C309.63 39.16, 329.78 17.02, 344.49 0.01 M297 60.75 C310.68 49.39, 321.09 33.81, 349.48 0.37 M297 60.75 C315.15 38.77, 333.48 18.69, 349.48 0.37 M302.64 60.35 C324.32 36.92, 345.03 13.46, 355.12 -0.02 M302.64 60.35 C313.81 48.45, 324.33 34.5, 355.12 -0.02 M307.63 60.71 C325.73 40.3, 344.22 19.66, 360.11 0.34 M307.63 60.71 C325.94 40.4, 345.23 17.77, 360.11 0.34 M313.27 60.32 C329.21 40.81, 343.04 25.17, 365.75 -0.06 M313.27 60.32 C327.62 43.39, 341.72 27.18, 365.75 -0.06 M318.26 60.68 C336.17 40.65, 355.74 18.82, 370.74 0.3 M318.26 60.68 C339.38 37.76, 360.45 12.8, 370.74 0.3 M323.9 60.28 C338.73 43.48, 353.24 26.3, 376.38 -0.09 M323.9 60.28 C336.33 47.29, 347.51 32.44, 376.38 -0.09 M328.89 60.64 C339.49 44.24, 355.25 32.02, 381.37 0.27 M328.89 60.64 C344.48 41.12, 362.44 22.51, 381.37 0.27 M334.53 60.25 C349.41 39.52, 366.39 21.92, 387.01 -0.13 M334.53 60.25 C354.85 36.66, 374.62 13.47, 387.01 -0.13 M339.52 60.61 C350.75 48.82, 361.41 37.03, 392 0.23 M339.52 60.61 C353.7 44.03, 368.67 27.61, 392 0.23 M345.16 60.22 C360.81 43.38, 372.76 26.2, 397.64 -0.16 M345.16 60.22 C357.75 44.9, 371.4 29.55, 397.64 -0.16 M350.15 60.58 C359.2 49.9, 371.59 34.55, 402.63 0.2 M350.15 60.58 C370.38 36.6, 389.23 14.31, 402.63 0.2 M355.79 60.18 C374.51 41.19, 388.71 21.92, 408.27 -0.2 M355.79 60.18 C366.58 46.42, 377.36 33.5, 408.27 -0.2 M360.78 60.54 C381.25 37.9, 399.83 13.26, 413.26 0.16 M360.78 60.54 C371.32 48.61, 382.39 35.54, 413.26 0.16 M366.42 60.15 C379.4 43.22, 391.9 29.32, 418.9 -0.23 M366.42 60.15 C385.22 37.26, 405.63 14.77, 418.9 -0.23 M371.41 60.51 C382.5 47.24, 396.91 31.2, 423.89 0.13 M371.41 60.51 C385.45 41.86, 400.81 24.78, 423.89 0.13 M377.05 60.11 C390.05 45.3, 401.68 31.18, 429.53 -0.26 M377.05 60.11 C396.23 37.1, 416.72 15.47, 429.53 -0.26 M382.04 60.47 C396.12 41.89, 412.66 24.72, 434.52 0.1 M382.04 60.47 C396.59 45.07, 409.76 27.62, 434.52 0.1 M387.68 60.08 C400.39 48.19, 409.29 36.4, 440.16 -0.3 M387.68 60.08 C406.13 37.9, 424.35 16.69, 440.16 -0.3 M392.67 60.44 C401.98 45.91, 416.62 35.7, 445.15 0.06 M392.67 60.44 C408.51 42.1, 423.69 23.49, 445.15 0.06 M398.31 60.04 C414.34 44.58, 425.47 26.87, 450.79 -0.33 M398.31 60.04 C419.09 35.09, 439.6 11.91, 450.79 -0.33 M403.3 60.4 C417.3 42.96, 434.23 26.49, 455.78 0.03 M403.3 60.4 C416.93 45.53, 430.24 29.52, 455.78 0.03 M408.28 60.76 C429.19 39.31, 447.07 17.59, 461.42 -0.37 M408.28 60.76 C421.95 44.31, 435.65 27.57, 461.42 -0.37 M413.93 60.37 C430.99 38.74, 448.61 18.81, 466.41 -0.01 M413.93 60.37 C432.64 38.17, 450.85 17.81, 466.41 -0.01 M418.91 60.73 C437.49 38.2, 456.28 18.72, 471.4 0.35 M418.91 60.73 C433.22 43.91, 447.9 26.34, 471.4 0.35 M424.56 60.33 C433.84 48.86, 443.79 37.39, 477.04 -0.04 M424.56 60.33 C439.9 43.54, 455.18 24.24, 477.04 -0.04 M429.54 60.69 C446.06 40.21, 464.52 21.01, 482.03 0.32 M429.54 60.69 C443.89 44, 457.98 28.45, 482.03 0.32 M435.19 60.3 C448.82 42.41, 466.47 25.35, 487.67 -0.08 M435.19 60.3 C450.91 42.47, 468.04 24.68, 487.67 -0.08 M440.17 60.66 C456.91 43.64, 472.41 24.77, 492.66 0.28 M440.17 60.66 C460.4 38.04, 479.02 15.08, 492.66 0.28 M445.82 60.26 C466.47 37.77, 486.47 12.46, 498.3 -0.11 M445.82 60.26 C463.01 39.26, 480.65 19.44, 498.3 -0.11 M450.8 60.63 C469.25 40.32, 484.24 25.67, 500.66 3.27 M450.8 60.63 C463.76 45.85, 476.97 31.38, 500.66 3.27 M456.45 60.23 C469.46 47.49, 478.49 34.4, 500.4 9.66 M456.45 60.23 C469.28 46.59, 481.23 30.91, 500.4 9.66 M461.43 60.59 C469.3 52.13, 476.42 41.9, 500.8 15.31 M461.43 60.59 C472.05 46.56, 483.5 33.67, 500.8 15.31 M467.08 60.2 C476.87 48.63, 483.91 39.92, 500.54 21.71 M467.08 60.2 C478.51 48.04, 488.18 36.89, 500.54 21.71 M472.06 60.56 C484.01 49.9, 490.07 36.44, 500.28 28.1 M472.06 60.56 C482.16 48.52, 493.69 36.32, 500.28 28.1 M477.71 60.16 C486.27 52.53, 493.63 40.78, 500.67 33.75 M477.71 60.16 C486.17 51.28, 493.01 41.14, 500.67 33.75 M482.69 60.52 C486.33 54.83, 495.16 48.76, 500.41 40.14 M482.69 60.52 C489 53.01, 495.27 46.04, 500.41 40.14 M488.34 60.13 C489.85 55.34, 492.5 54.2, 500.8 45.79 M488.34 60.13 C490.06 57.34, 493.67 54.31, 500.8 45.79 M493.32 60.49 C495.48 58.02, 497.53 55.52, 500.54 52.19 M493.32 60.49 C495.82 57.97, 497.8 55.42, 500.54 52.19 M498.97 60.09 C499.44 59.74, 499.74 59, 500.28 58.58 M498.97 60.09 C499.35 59.77, 499.68 59.3, 500.28 58.58" stroke="#a5d8ff" stroke-width="0.5" fill="none"></path><path d="M0 0 C156.68 -0.46, 313.69 -0.72, 500 0 M0 0 C146.57 0.91, 293.2 1.28, 500 0 M500 0 C500.88 20.66, 499.57 42.02, 500 60 M500 0 C499.1 16.2, 498.88 32.18, 500 60 M500 60 C355.18 58.78, 211.79 59.08, 0 60 M500 60 C327.72 60.88, 154.79 60.92, 0 60 M0 60 C1.26 38.46, 2.26 16.15, 0 0 M0 60 C-0.56 46.9, -0.72 31.37, 0 0" stroke="#1e1e1e" stroke-width="1" fill="none"></path></g><g transform="translate(1530.0259776494145 370) rotate(0 41.00833511352539 12)"><text x="0" y="0" font-family="Cascadia, Segoe UI Emoji" font-size="20px" fill="#1e1e1e" text-anchor="start" style="white-space: pre;" direction="ltr" dominant-baseline="text-before-edge">recipes</text></g><g stroke-linecap="round" transform="translate(1510.0259776494145 410) rotate(0 250 90)"><path d="M0 0 C156.69 -0.01, 314.56 1.03, 500 0 M0 0 C124.19 0.87, 248.27 0.98, 500 0 M500 0 C499.36 36.89, 499.63 71.42, 500 180 M500 0 C497.93 44.42, 498.7 87.28, 500 180 M500 180 C366.27 178.2, 231.48 178.36, 0 180 M500 180 C328.44 180.23, 157.83 179.89, 0 180 M0 180 C1.09 124.34, -2.17 67.49, 0 0 M0 180 C-0.08 136.24, 0.34 94.87, 0 0" stroke="#1e1e1e" stroke-width="1" fill="none"></path></g><g transform="translate(1530.0259776494145 470) rotate(0 23.433332443237305 12)"><text x="0" y="0" font-family="Cascadia, Segoe UI Emoji" font-size="20px" fill="#1e1e1e" text-anchor="start" style="white-space: pre;" direction="ltr" dominant-baseline="text-before-edge">name</text></g><g transform="translate(1530.0259776494145 510) rotate(0 46.86666488647461 12)"><text x="0" y="0" font-family="Cascadia, Segoe UI Emoji" font-size="20px" fill="#1e1e1e" text-anchor="start" style="white-space: pre;" direction="ltr" dominant-baseline="text-before-edge">category</text></g><g transform="translate(1530.0259776494145 550) rotate(0 46.86666488647461 12)"><text x="0" y="0" font-family="Cascadia, Segoe UI Emoji" font-size="20px" fill="#1e1e1e" text-anchor="start" style="white-space: pre;" direction="ltr" dominant-baseline="text-before-edge">servings</text></g><g transform="translate(1530.0259776494145 430) rotate(0 11.716666221618652 12)"><text x="0" y="0" font-family="Cascadia, Segoe UI Emoji" font-size="20px" fill="#1e1e1e" text-anchor="start" style="white-space: pre;" direction="ltr" dominant-baseline="text-before-edge">id</text></g><g transform="translate(1750.0259776494145 430) rotate(0 123.0250015258789 12)"><text x="246.0500030517578" y="0" font-family="Cascadia, Segoe UI Emoji" font-size="20px" fill="#1e1e1e" text-anchor="end" style="white-space: pre;" direction="ltr" dominant-baseline="text-before-edge">int, autoinc, notnull</text></g><g transform="translate(1948.609309711182 470) rotate(0 23.433332443237305 12)"><text x="46.86666488647461" y="0" font-family="Cascadia, Segoe UI Emoji" font-size="20px" fill="#1e1e1e" text-anchor="end" style="white-space: pre;" direction="ltr" dominant-baseline="text-before-edge">text</text></g><g transform="translate(1950.0259776494145 510) rotate(0 23.433332443237305 12)"><text x="46.86666488647461" y="0" font-family="Cascadia, Segoe UI Emoji" font-size="20px" fill="#1e1e1e" text-anchor="end" style="white-space: pre;" direction="ltr" dominant-baseline="text-before-edge">text</text></g><g transform="translate(1961.7426410100102 550) rotate(0 17.575000762939453 12)"><text x="35.150001525878906" y="0" font-family="Cascadia, Segoe UI Emoji" font-size="20px" fill="#1e1e1e" text-anchor="end" style="white-space: pre;" direction="ltr" dominant-baseline="text-before-edge">int</text></g><g transform="translate(1330.0259776494145 590) rotate(0 5.858333110809326 12)"><text x="0" y="0" font-family="Cascadia, Segoe UI Emoji" font-size="20px" fill="#1e1e1e" text-anchor="start" style="white-space: pre;" direction="ltr" dominant-baseline="text-before-edge">*</text></g><g transform="translate(1462.2259672912826 414.95357790018494) rotate(0 5.858333110809326 12)"><text x="0" y="0" font-family="Cascadia, Segoe UI Emoji" font-size="20px" fill="#1e1e1e" text-anchor="start" style="white-space: pre;" direction="ltr" dominant-baseline="text-before-edge">1</text></g><g transform="translate(650.1661929598132 414.88466891481056) rotate(0 5.858333110809326 12)"><text x="0" y="0" font-family="Cascadia, Segoe UI Emoji" font-size="20px" fill="#1e1e1e" text-anchor="start" style="white-space: pre;" direction="ltr" dominant-baseline="text-before-edge">1</text></g><g transform="translate(789.2239528538621 515.5960569512063) rotate(0 5.858333110809326 12.000000000000028)"><text x="0" y="0" font-family="Cascadia, Segoe UI Emoji" font-size="20px" fill="#1e1e1e" text-anchor="start" style="white-space: pre;" direction="ltr" dominant-baseline="text-before-edge">*</text></g><g transform="translate(790.2239528538621 560.0113377942339) rotate(0 5.858333110809326 12)"><text x="0" y="0" font-family="Cascadia, Segoe UI Emoji" font-size="20px" fill="#1e1e1e" text-anchor="start" style="white-space: pre;" direction="ltr" dominant-baseline="text-before-edge">1</text></g><g transform="translate(650.0259776494145 870) rotate(0 5.858333110809326 12)"><text x="0" y="0" font-family="Cascadia, Segoe UI Emoji" font-size="20px" fill="#1e1e1e" text-anchor="start" style="white-space: pre;" direction="ltr" dominant-baseline="text-before-edge">1</text></g><g transform="translate(950.0259776494145 10) rotate(0 126.5999984741211 21.599999999999998)"><text x="0" y="0" font-family="Cascadia, Segoe UI Emoji" font-size="36px" fill="#1e1e1e" text-anchor="start" style="white-space: pre;" direction="ltr" dominant-baseline="text-before-edge">Cookbook App</text></g><g transform="translate(1004.1597924813843 72.57866052527814) rotate(0 73.80000305175781 16.799999999999997)"><text x="0" y="0" font-family="Cascadia, Segoe UI Emoji" font-size="28px" fill="#1e1e1e" text-anchor="start" style="white-space: pre;" direction="ltr" dominant-baseline="text-before-edge">datamodel</text></g></svg>